<?xml version="1.0" encoding="UTF-8"?>
<svg version="1.1" xmlns="http://www.w3.org/2000/svg" width="144" height="144">
<path d="M0 0 C1.10619186 -0.0071553 2.21238373 -0.01431061 3.35209656 -0.02168274 C5.18097412 -0.02571609 5.18097412 -0.02571609 7.04679871 -0.02983093 C8.32653061 -0.03640213 9.60626251 -0.04297333 10.92477417 -0.04974365 C14.44140196 -0.0671576 17.95801615 -0.07770648 21.47467637 -0.08594918 C23.67145095 -0.09109854 25.86822131 -0.0971743 28.0649929 -0.10346031 C34.93728279 -0.12251356 41.80956192 -0.13674437 48.68187314 -0.14507228 C56.61649002 -0.15484606 64.55082802 -0.1811684 72.48534662 -0.22157317 C78.61705158 -0.25172668 84.74867657 -0.26654041 90.88045424 -0.26985329 C94.54327013 -0.27220469 98.20578815 -0.2811761 101.86852455 -0.30631447 C105.95547179 -0.33391089 110.04179551 -0.32976646 114.12882996 -0.32279968 C115.34200897 -0.33560974 116.55518799 -0.3484198 117.80513 -0.36161804 C126.00600566 -0.31052998 126.00600566 -0.31052998 130.01022339 2.05154419 C132.77181791 5.31808365 132.91044174 7.15685071 132.92907715 11.36526489 C132.9398101 13.02455269 132.9398101 13.02455269 132.95075989 14.71736145 C132.95344879 15.93661316 132.9561377 17.15586487 132.95890808 18.4120636 C132.96547928 19.6917955 132.97205048 20.9715274 132.9788208 22.29003906 C132.99623475 25.80666685 133.00678363 29.32328104 133.01502633 32.83994126 C133.02017569 35.03671584 133.02625145 37.2334862 133.03253746 39.4302578 C133.05159071 46.30254768 133.06582152 53.17482681 133.07414943 60.04713804 C133.08392321 67.98175491 133.11024554 75.91609291 133.15065032 83.85061151 C133.18080383 89.98231647 133.19561756 96.11394146 133.19893044 102.24571913 C133.20128184 105.90853503 133.21025325 109.57105304 133.23539162 113.23378944 C133.26298804 117.32073668 133.25884361 121.40706041 133.25187683 125.49409485 C133.27109192 127.31386337 133.27109192 127.31386337 133.29069519 129.1703949 C133.23960712 137.37127056 133.23960712 137.37127056 130.87753296 141.37548828 C127.6109935 144.1370828 125.77222644 144.27570663 121.56381226 144.29434204 C120.45762039 144.30149734 119.35142853 144.30865265 118.2117157 144.31602478 C116.99246399 144.31871368 115.77321228 144.32140259 114.51701355 144.32417297 C113.23728165 144.33074417 111.95754974 144.33731537 110.63903809 144.34408569 C107.1224103 144.36149964 103.60579611 144.37204852 100.08913589 144.38029122 C97.8923613 144.38544058 95.69559095 144.39151634 93.49881935 144.39780235 C86.62652947 144.4168556 79.75425034 144.43108641 72.88193911 144.43941432 C64.94732224 144.4491881 57.01298424 144.47551044 49.07846564 144.51591522 C42.94676068 144.54606872 36.81513569 144.56088245 30.68335801 144.56419533 C27.02054212 144.56654673 23.3580241 144.57551815 19.6952877 144.60065651 C15.60834047 144.62825294 11.52201674 144.62410851 7.4349823 144.61714172 C6.22180328 144.62995178 5.00862427 144.64276184 3.75868225 144.65596008 C-4.44219341 144.60487202 -4.44219341 144.60487202 -8.44641113 142.24279785 C-11.20800566 138.97625839 -11.34662948 137.13749133 -11.36526489 132.92907715 C-11.37599785 131.26978935 -11.37599785 131.26978935 -11.38694763 129.57698059 C-11.38963654 128.35772888 -11.39232544 127.13847717 -11.39509583 125.88227844 C-11.40166702 124.60254654 -11.40823822 123.32281464 -11.41500854 122.00430298 C-11.43242249 118.48767519 -11.44297137 114.971061 -11.45121408 111.45440078 C-11.45636343 109.2576262 -11.46243919 107.06085584 -11.4687252 104.86408424 C-11.48777845 97.99179436 -11.50200926 91.11951523 -11.51033717 84.24720401 C-11.52011095 76.31258713 -11.54643329 68.37824913 -11.58683807 60.44373053 C-11.61699157 54.31202557 -11.6318053 48.18040058 -11.63511819 42.04862291 C-11.63746958 38.38580701 -11.646441 34.723289 -11.67157936 31.0605526 C-11.69917579 26.97360536 -11.69503136 22.88728164 -11.68806458 18.80024719 C-11.70087463 17.58706818 -11.71368469 16.37388916 -11.72688293 15.12394714 C-11.67579487 6.92307149 -11.67579487 6.92307149 -9.3137207 2.91885376 C-6.04718124 0.15725924 -4.20841418 0.01863541 0 0 Z M11.78190613 24.14717102 C9.61860553 26.88735178 8.85838165 28.63369253 8.34440613 32.08467102 C9.04617352 36.9970428 11.30479315 39.9810292 15.15690613 43.02217102 C18.38354739 44.40501728 20.29876995 44.6447619 23.78190613 44.14717102 C28.06691709 41.8786358 31.04596094 39.74232006 32.78190613 35.14717102 C33.06635928 30.41490496 32.42396957 27.11026618 29.78190613 23.14717102 C23.41843186 18.90485484 17.57750532 18.90353366 11.78190613 24.14717102 Z M66.78190613 62.14717102 C66.78190613 62.80717102 66.78190613 63.46717102 66.78190613 64.14717102 C66.12190613 64.14717102 65.46190613 64.14717102 64.78190613 64.14717102 C64.78190613 60.84717102 64.78190613 57.54717102 64.78190613 54.14717102 C58.18190613 54.14717102 51.58190613 54.14717102 44.78190613 54.14717102 C44.78190613 76.58717102 44.78190613 99.02717102 44.78190613 122.14717102 C51.71190613 122.14717102 58.64190613 122.14717102 65.78190613 122.14717102 C65.81928894 119.26869446 65.85667175 116.3902179 65.89518738 113.42451477 C65.94146546 110.62113566 65.99267625 107.81788676 66.0443573 105.01460266 C66.07750772 103.07392867 66.10557013 101.13316056 66.12834167 99.19233704 C66.16206997 96.39432355 66.21439432 93.59716492 66.27018738 90.79951477 C66.2765773 89.93881882 66.28296722 89.07812286 66.28955078 88.19134521 C66.41972555 82.79655987 67.1909954 78.91511021 69.78190613 74.14717102 C74.0798104 71.1191021 77.59523288 70.6669235 82.78190613 71.14717102 C85.30119777 72.06704991 86.48013947 72.61174766 87.81079102 74.97271729 C89.59245516 80.65445187 90.24780398 85.83506784 90.29362488 91.77607727 C90.31157608 92.65118454 90.32952728 93.52629181 90.34802246 94.42791748 C90.40165914 97.18845479 90.43586967 99.94882397 90.46940613 102.70967102 C90.50262051 104.5957619 90.53711391 106.48183072 90.57292175 108.36787415 C90.65973671 112.96099103 90.72020161 117.55337572 90.78190613 122.14717102 C97.38190613 122.14717102 103.98190613 122.14717102 110.78190613 122.14717102 C110.85638559 115.33363705 110.91066421 108.52034315 110.94670105 101.70649719 C110.96173342 99.391351 110.98216483 97.07623302 111.00822449 94.76118469 C111.04485209 91.42232778 111.06168854 88.08384932 111.07487488 84.74482727 C111.09035873 83.71946365 111.10584259 82.69410004 111.12179565 81.63766479 C111.12383053 72.83394702 109.74302362 65.19818811 103.48893738 58.65498352 C97.26449299 53.1569617 91.34372492 52.50568145 83.12956238 52.76045227 C76.04396693 53.57897496 71.37023833 56.69852653 66.78190613 62.14717102 Z M10.78190613 54.14717102 C10.78190613 76.58717102 10.78190613 99.02717102 10.78190613 122.14717102 C17.38190613 122.14717102 23.98190613 122.14717102 30.78190613 122.14717102 C30.78190613 99.70717102 30.78190613 77.26717102 30.78190613 54.14717102 C24.18190613 54.14717102 17.58190613 54.14717102 10.78190613 54.14717102 Z " fill="#3B5AA6" transform="translate(11.218093872070313,-0.1471710205078125)"/>
<path d="M0 0 C1.6592878 -0.0129007 1.6592878 -0.0129007 3.35209656 -0.02606201 C5.18097412 -0.03245193 5.18097412 -0.03245193 7.04679871 -0.03897095 C8.32653061 -0.04714844 9.60626251 -0.05532593 10.92477417 -0.06375122 C15.17530713 -0.08997449 19.42584997 -0.10527891 23.67643738 -0.11953735 C25.13928929 -0.12489686 26.60214113 -0.13027437 28.0649929 -0.13566971 C34.14968544 -0.15729868 40.23437531 -0.1760357 46.31909657 -0.1872921 C55.04138432 -0.20353362 63.76322675 -0.23671545 72.48534662 -0.29369295 C78.61704925 -0.33238384 84.74863273 -0.35192373 90.88045424 -0.35721266 C94.54334668 -0.36086731 98.20576419 -0.37289937 101.86852455 -0.4053154 C105.95556274 -0.44096781 110.04164305 -0.43702746 114.12882996 -0.42959595 C115.34200897 -0.44600128 116.55518799 -0.46240662 117.80513 -0.47930908 C126.93061961 -0.41120688 126.93061961 -0.41120688 130.07272339 2.69036865 C130.63675369 3.50333405 131.200784 4.31629944 131.78190613 5.15390015 C131.12190613 5.15390015 130.46190613 5.15390015 129.78190613 5.15390015 C129.45190613 5.81390015 129.12190613 6.47390015 128.78190613 7.15390015 C128.32815613 6.34952515 127.87440613 5.54515015 127.40690613 4.71640015 C126.03464948 2.06533442 126.03464948 2.06533442 123.78190613 1.15390015 C123.78190613 1.81390015 123.78190613 2.47390015 123.78190613 3.15390015 C122.79190613 2.82390015 121.80190613 2.49390015 120.78190613 2.15390015 C120.45190613 2.48390015 120.12190613 2.81390015 119.78190613 3.15390015 C118.79190613 2.82390015 117.80190613 2.49390015 116.78190613 2.15390015 C116.45190613 2.48390015 116.12190613 2.81390015 115.78190613 3.15390015 C114.79190613 2.82390015 113.80190613 2.49390015 112.78190613 2.15390015 C112.45190613 2.48390015 112.12190613 2.81390015 111.78190613 3.15390015 C110.79190613 2.82390015 109.80190613 2.49390015 108.78190613 2.15390015 C108.45190613 2.48390015 108.12190613 2.81390015 107.78190613 3.15390015 C106.79190613 2.82390015 105.80190613 2.49390015 104.78190613 2.15390015 C104.45190613 2.48390015 104.12190613 2.81390015 103.78190613 3.15390015 C102.79190613 2.82390015 101.80190613 2.49390015 100.78190613 2.15390015 C100.45190613 2.48390015 100.12190613 2.81390015 99.78190613 3.15390015 C98.79190613 2.82390015 97.80190613 2.49390015 96.78190613 2.15390015 C96.45190613 2.48390015 96.12190613 2.81390015 95.78190613 3.15390015 C94.79190613 2.82390015 93.80190613 2.49390015 92.78190613 2.15390015 C92.45190613 2.48390015 92.12190613 2.81390015 91.78190613 3.15390015 C90.79190613 2.82390015 89.80190613 2.49390015 88.78190613 2.15390015 C88.45190613 2.48390015 88.12190613 2.81390015 87.78190613 3.15390015 C86.79190613 2.82390015 85.80190613 2.49390015 84.78190613 2.15390015 C84.45190613 2.48390015 84.12190613 2.81390015 83.78190613 3.15390015 C82.79190613 2.82390015 81.80190613 2.49390015 80.78190613 2.15390015 C80.45190613 2.48390015 80.12190613 2.81390015 79.78190613 3.15390015 C78.79190613 2.82390015 77.80190613 2.49390015 76.78190613 2.15390015 C76.45190613 2.48390015 76.12190613 2.81390015 75.78190613 3.15390015 C74.79190613 2.82390015 73.80190613 2.49390015 72.78190613 2.15390015 C72.45190613 2.48390015 72.12190613 2.81390015 71.78190613 3.15390015 C70.79190613 2.82390015 69.80190613 2.49390015 68.78190613 2.15390015 C68.45190613 2.48390015 68.12190613 2.81390015 67.78190613 3.15390015 C66.79190613 2.82390015 65.80190613 2.49390015 64.78190613 2.15390015 C64.45190613 2.48390015 64.12190613 2.81390015 63.78190613 3.15390015 C62.79190613 2.82390015 61.80190613 2.49390015 60.78190613 2.15390015 C60.45190613 2.48390015 60.12190613 2.81390015 59.78190613 3.15390015 C58.79190613 2.82390015 57.80190613 2.49390015 56.78190613 2.15390015 C56.45190613 2.48390015 56.12190613 2.81390015 55.78190613 3.15390015 C54.79190613 2.82390015 53.80190613 2.49390015 52.78190613 2.15390015 C52.45190613 2.48390015 52.12190613 2.81390015 51.78190613 3.15390015 C50.79190613 2.82390015 49.80190613 2.49390015 48.78190613 2.15390015 C48.45190613 2.48390015 48.12190613 2.81390015 47.78190613 3.15390015 C46.79190613 2.82390015 45.80190613 2.49390015 44.78190613 2.15390015 C44.45190613 2.48390015 44.12190613 2.81390015 43.78190613 3.15390015 C42.79190613 2.82390015 41.80190613 2.49390015 40.78190613 2.15390015 C40.45190613 2.48390015 40.12190613 2.81390015 39.78190613 3.15390015 C38.79190613 2.82390015 37.80190613 2.49390015 36.78190613 2.15390015 C36.45190613 2.48390015 36.12190613 2.81390015 35.78190613 3.15390015 C34.79190613 2.82390015 33.80190613 2.49390015 32.78190613 2.15390015 C32.45190613 2.48390015 32.12190613 2.81390015 31.78190613 3.15390015 C30.79190613 2.82390015 29.80190613 2.49390015 28.78190613 2.15390015 C28.45190613 2.48390015 28.12190613 2.81390015 27.78190613 3.15390015 C26.79190613 2.82390015 25.80190613 2.49390015 24.78190613 2.15390015 C24.45190613 2.48390015 24.12190613 2.81390015 23.78190613 3.15390015 C22.79190613 2.82390015 21.80190613 2.49390015 20.78190613 2.15390015 C20.45190613 2.48390015 20.12190613 2.81390015 19.78190613 3.15390015 C18.79190613 2.82390015 17.80190613 2.49390015 16.78190613 2.15390015 C16.45190613 2.48390015 16.12190613 2.81390015 15.78190613 3.15390015 C14.79190613 2.82390015 13.80190613 2.49390015 12.78190613 2.15390015 C12.45190613 2.48390015 12.12190613 2.81390015 11.78190613 3.15390015 C10.79190613 2.82390015 9.80190613 2.49390015 8.78190613 2.15390015 C8.45190613 2.48390015 8.12190613 2.81390015 7.78190613 3.15390015 C6.79190613 2.82390015 5.80190613 2.49390015 4.78190613 2.15390015 C4.45190613 2.48390015 4.12190613 2.81390015 3.78190613 3.15390015 C2.79190613 2.82390015 1.80190613 2.49390015 0.78190613 2.15390015 C0.45190613 2.48390015 0.12190613 2.81390015 -0.21809387 3.15390015 C-1.20809387 2.82390015 -2.19809387 2.49390015 -3.21809387 2.15390015 C-3.54809387 2.48390015 -3.87809387 2.81390015 -4.21809387 3.15390015 C-4.87809387 3.15390015 -5.53809387 3.15390015 -6.21809387 3.15390015 C-5.55809387 3.81390015 -4.89809387 4.47390015 -4.21809387 5.15390015 C-4.87809387 5.15390015 -5.53809387 5.15390015 -6.21809387 5.15390015 C-6.21809387 5.81390015 -6.21809387 6.47390015 -6.21809387 7.15390015 C-5.20953354 7.15113477 -5.20953354 7.15113477 -4.18059826 7.14831352 C12.16869446 7.10417294 28.51796834 7.07106233 44.86730671 7.0502758 C52.77367605 7.03995679 60.68000565 7.02588455 68.58634949 7.00302124 C75.4763411 6.98310646 82.36630393 6.97018826 89.25632352 6.96572316 C92.90560193 6.96311253 96.554798 6.9569635 100.20405006 6.94244003 C104.27471721 6.92637033 108.34524059 6.92591923 112.41593933 6.92684937 C113.63010025 6.91965881 114.84426117 6.91246826 116.09521484 6.90505981 C117.20159302 6.90780914 118.30797119 6.91055847 119.44787598 6.91339111 C120.41114964 6.91154753 121.37442331 6.90970394 122.36688709 6.90780449 C124.78190613 7.15390015 124.78190613 7.15390015 127.78190613 9.15390015 C127.45190613 9.81390015 127.12190613 10.47390015 126.78190613 11.15390015 C125.79190613 10.65890015 125.79190613 10.65890015 124.78190613 10.15390015 C124.45190613 10.48390015 124.12190613 10.81390015 123.78190613 11.15390015 C122.79190613 10.82390015 121.80190613 10.49390015 120.78190613 10.15390015 C120.45190613 10.48390015 120.12190613 10.81390015 119.78190613 11.15390015 C118.79190613 10.82390015 117.80190613 10.49390015 116.78190613 10.15390015 C116.45190613 10.48390015 116.12190613 10.81390015 115.78190613 11.15390015 C114.79190613 10.82390015 113.80190613 10.49390015 112.78190613 10.15390015 C112.45190613 10.48390015 112.12190613 10.81390015 111.78190613 11.15390015 C110.79190613 10.82390015 109.80190613 10.49390015 108.78190613 10.15390015 C108.45190613 10.48390015 108.12190613 10.81390015 107.78190613 11.15390015 C106.79190613 10.82390015 105.80190613 10.49390015 104.78190613 10.15390015 C104.45190613 10.48390015 104.12190613 10.81390015 103.78190613 11.15390015 C102.79190613 10.82390015 101.80190613 10.49390015 100.78190613 10.15390015 C100.45190613 10.48390015 100.12190613 10.81390015 99.78190613 11.15390015 C98.79190613 10.82390015 97.80190613 10.49390015 96.78190613 10.15390015 C96.45190613 10.48390015 96.12190613 10.81390015 95.78190613 11.15390015 C94.79190613 10.82390015 93.80190613 10.49390015 92.78190613 10.15390015 C92.45190613 10.48390015 92.12190613 10.81390015 91.78190613 11.15390015 C90.79190613 10.82390015 89.80190613 10.49390015 88.78190613 10.15390015 C88.45190613 10.48390015 88.12190613 10.81390015 87.78190613 11.15390015 C86.79190613 10.82390015 85.80190613 10.49390015 84.78190613 10.15390015 C84.45190613 10.48390015 84.12190613 10.81390015 83.78190613 11.15390015 C82.79190613 10.82390015 81.80190613 10.49390015 80.78190613 10.15390015 C80.45190613 10.48390015 80.12190613 10.81390015 79.78190613 11.15390015 C78.79190613 10.82390015 77.80190613 10.49390015 76.78190613 10.15390015 C76.45190613 10.48390015 76.12190613 10.81390015 75.78190613 11.15390015 C74.79190613 10.82390015 73.80190613 10.49390015 72.78190613 10.15390015 C72.45190613 10.48390015 72.12190613 10.81390015 71.78190613 11.15390015 C70.79190613 10.82390015 69.80190613 10.49390015 68.78190613 10.15390015 C68.45190613 10.48390015 68.12190613 10.81390015 67.78190613 11.15390015 C66.79190613 10.82390015 65.80190613 10.49390015 64.78190613 10.15390015 C64.45190613 10.48390015 64.12190613 10.81390015 63.78190613 11.15390015 C62.79190613 10.82390015 61.80190613 10.49390015 60.78190613 10.15390015 C60.45190613 10.48390015 60.12190613 10.81390015 59.78190613 11.15390015 C58.79190613 10.82390015 57.80190613 10.49390015 56.78190613 10.15390015 C56.45190613 10.48390015 56.12190613 10.81390015 55.78190613 11.15390015 C54.79190613 10.82390015 53.80190613 10.49390015 52.78190613 10.15390015 C52.45190613 10.48390015 52.12190613 10.81390015 51.78190613 11.15390015 C50.79190613 10.82390015 49.80190613 10.49390015 48.78190613 10.15390015 C48.45190613 10.48390015 48.12190613 10.81390015 47.78190613 11.15390015 C46.79190613 10.82390015 45.80190613 10.49390015 44.78190613 10.15390015 C44.45190613 10.48390015 44.12190613 10.81390015 43.78190613 11.15390015 C42.79190613 10.82390015 41.80190613 10.49390015 40.78190613 10.15390015 C40.45190613 10.48390015 40.12190613 10.81390015 39.78190613 11.15390015 C38.79190613 10.82390015 37.80190613 10.49390015 36.78190613 10.15390015 C36.45190613 10.48390015 36.12190613 10.81390015 35.78190613 11.15390015 C34.79190613 10.82390015 33.80190613 10.49390015 32.78190613 10.15390015 C32.45190613 10.48390015 32.12190613 10.81390015 31.78190613 11.15390015 C30.79190613 10.82390015 29.80190613 10.49390015 28.78190613 10.15390015 C28.45190613 10.48390015 28.12190613 10.81390015 27.78190613 11.15390015 C26.79190613 10.82390015 25.80190613 10.49390015 24.78190613 10.15390015 C24.45190613 10.48390015 24.12190613 10.81390015 23.78190613 11.15390015 C22.79190613 10.82390015 21.80190613 10.49390015 20.78190613 10.15390015 C20.45190613 10.48390015 20.12190613 10.81390015 19.78190613 11.15390015 C18.79190613 10.82390015 17.80190613 10.49390015 16.78190613 10.15390015 C16.45190613 10.48390015 16.12190613 10.81390015 15.78190613 11.15390015 C14.79190613 10.82390015 13.80190613 10.49390015 12.78190613 10.15390015 C12.45190613 10.48390015 12.12190613 10.81390015 11.78190613 11.15390015 C10.79190613 10.82390015 9.80190613 10.49390015 8.78190613 10.15390015 C8.45190613 10.48390015 8.12190613 10.81390015 7.78190613 11.15390015 C6.79190613 10.82390015 5.80190613 10.49390015 4.78190613 10.15390015 C4.45190613 10.48390015 4.12190613 10.81390015 3.78190613 11.15390015 C2.79190613 10.82390015 1.80190613 10.49390015 0.78190613 10.15390015 C0.45190613 10.48390015 0.12190613 10.81390015 -0.21809387 11.15390015 C-1.20809387 10.82390015 -2.19809387 10.49390015 -3.21809387 10.15390015 C-3.54809387 10.48390015 -3.87809387 10.81390015 -4.21809387 11.15390015 C-4.21809387 11.81390015 -4.21809387 12.47390015 -4.21809387 13.15390015 C-4.87809387 13.15390015 -5.53809387 13.15390015 -6.21809387 13.15390015 C-6.21809387 13.81390015 -6.21809387 14.47390015 -6.21809387 15.15390015 C-5.29472229 15.14342651 -4.37135071 15.13295288 -3.41999817 15.12216187 C0.00727331 15.08806825 3.43436446 15.06299569 6.86174011 15.04403687 C8.34484196 15.03398194 9.827924 15.02033611 11.31095886 15.00302124 C13.44325144 14.97875008 15.57528182 14.96741215 17.70768738 14.95858765 C19.63221741 14.9428772 19.63221741 14.9428772 21.59562683 14.92684937 C24.78190613 15.15390015 24.78190613 15.15390015 27.78190613 17.15390015 C28.27690613 18.63890015 28.27690613 18.63890015 28.78190613 20.15390015 C28.78190613 19.49390015 28.78190613 18.83390015 28.78190613 18.15390015 C30.34440613 16.46640015 30.34440613 16.46640015 32.78190613 15.15390015 C36.53190613 15.46640015 36.53190613 15.46640015 39.78190613 16.15390015 C40.27690613 18.13390015 40.27690613 18.13390015 40.78190613 20.15390015 C43.83461076 20.31201403 43.83461076 20.31201403 46.78190613 19.15390015 C49.78190613 19.15390015 49.78190613 19.15390015 52.78190613 20.15390015 C55.83461076 20.31201403 55.83461076 20.31201403 58.78190613 19.15390015 C61.78190613 19.15390015 61.78190613 19.15390015 64.78190613 20.15390015 C67.83461076 20.31201403 67.83461076 20.31201403 70.78190613 19.15390015 C73.78190613 19.15390015 73.78190613 19.15390015 76.78190613 20.15390015 C79.83461076 20.31201403 79.83461076 20.31201403 82.78190613 19.15390015 C85.78190613 19.15390015 85.78190613 19.15390015 88.78190613 20.15390015 C91.83461076 20.31201403 91.83461076 20.31201403 94.78190613 19.15390015 C97.78190613 19.15390015 97.78190613 19.15390015 100.78190613 20.15390015 C103.83461076 20.31201403 103.83461076 20.31201403 106.78190613 19.15390015 C109.78190613 19.15390015 109.78190613 19.15390015 112.78190613 20.15390015 C115.83461076 20.31201403 115.83461076 20.31201403 118.78190613 19.15390015 C121.78190613 19.15390015 121.78190613 19.15390015 123.78190613 20.15390015 C124.50350037 21.79753148 125.17542033 23.46440401 125.78190613 25.15390015 C125.12190613 25.15390015 124.46190613 25.15390015 123.78190613 25.15390015 C123.78190613 25.81390015 123.78190613 26.47390015 123.78190613 27.15390015 C122.79190613 26.82390015 121.80190613 26.49390015 120.78190613 26.15390015 C120.45190613 26.48390015 120.12190613 26.81390015 119.78190613 27.15390015 C118.79190613 26.82390015 117.80190613 26.49390015 116.78190613 26.15390015 C116.28690613 26.64890015 116.28690613 26.64890015 115.78190613 27.15390015 C114.29690613 26.65890015 114.29690613 26.65890015 112.78190613 26.15390015 C112.28690613 26.64890015 112.28690613 26.64890015 111.78190613 27.15390015 C110.29690613 26.65890015 110.29690613 26.65890015 108.78190613 26.15390015 C108.28690613 26.64890015 108.28690613 26.64890015 107.78190613 27.15390015 C106.29690613 26.65890015 106.29690613 26.65890015 104.78190613 26.15390015 C104.28690613 26.64890015 104.28690613 26.64890015 103.78190613 27.15390015 C102.29690613 26.65890015 102.29690613 26.65890015 100.78190613 26.15390015 C100.28690613 26.64890015 100.28690613 26.64890015 99.78190613 27.15390015 C98.29690613 26.65890015 98.29690613 26.65890015 96.78190613 26.15390015 C96.28690613 26.64890015 96.28690613 26.64890015 95.78190613 27.15390015 C94.29690613 26.65890015 94.29690613 26.65890015 92.78190613 26.15390015 C92.28690613 26.64890015 92.28690613 26.64890015 91.78190613 27.15390015 C90.29690613 26.65890015 90.29690613 26.65890015 88.78190613 26.15390015 C88.28690613 26.64890015 88.28690613 26.64890015 87.78190613 27.15390015 C86.29690613 26.65890015 86.29690613 26.65890015 84.78190613 26.15390015 C84.28690613 26.64890015 84.28690613 26.64890015 83.78190613 27.15390015 C82.29690613 26.65890015 82.29690613 26.65890015 80.78190613 26.15390015 C80.28690613 26.64890015 80.28690613 26.64890015 79.78190613 27.15390015 C78.29690613 26.65890015 78.29690613 26.65890015 76.78190613 26.15390015 C76.28690613 26.64890015 76.28690613 26.64890015 75.78190613 27.15390015 C74.29690613 26.65890015 74.29690613 26.65890015 72.78190613 26.15390015 C72.28690613 26.64890015 72.28690613 26.64890015 71.78190613 27.15390015 C70.29690613 26.65890015 70.29690613 26.65890015 68.78190613 26.15390015 C68.28690613 26.64890015 68.28690613 26.64890015 67.78190613 27.15390015 C66.29690613 26.65890015 66.29690613 26.65890015 64.78190613 26.15390015 C64.28690613 26.64890015 64.28690613 26.64890015 63.78190613 27.15390015 C62.29690613 26.65890015 62.29690613 26.65890015 60.78190613 26.15390015 C60.28690613 26.64890015 60.28690613 26.64890015 59.78190613 27.15390015 C58.29690613 26.65890015 58.29690613 26.65890015 56.78190613 26.15390015 C56.28690613 26.64890015 56.28690613 26.64890015 55.78190613 27.15390015 C54.29690613 26.65890015 54.29690613 26.65890015 52.78190613 26.15390015 C52.28690613 26.64890015 52.28690613 26.64890015 51.78190613 27.15390015 C50.79190613 26.82390015 49.80190613 26.49390015 48.78190613 26.15390015 C48.28690613 26.64890015 48.28690613 26.64890015 47.78190613 27.15390015 C44.78190613 26.15390015 44.78190613 26.15390015 43.78190613 25.15390015 C43.78190613 26.47390015 43.78190613 27.79390015 43.78190613 29.15390015 C43.12190613 29.15390015 42.46190613 29.15390015 41.78190613 29.15390015 C41.78190613 30.47390015 41.78190613 31.79390015 41.78190613 33.15390015 C40.13190613 32.49390015 38.48190613 31.83390015 36.78190613 31.15390015 C36.78190613 29.83390015 36.78190613 28.51390015 36.78190613 27.15390015 C36.45190613 27.15390015 36.12190613 27.15390015 35.78190613 27.15390015 C35.78190613 27.81390015 35.78190613 28.47390015 35.78190613 29.15390015 C35.12190613 29.15390015 34.46190613 29.15390015 33.78190613 29.15390015 C33.45190613 30.47390015 33.12190613 31.79390015 32.78190613 33.15390015 C32.60014832 32.61120483 32.4183905 32.06850952 32.23112488 31.5093689 C31.97975769 30.79393921 31.7283905 30.07850952 31.46940613 29.34140015 C31.22577332 28.63370483 30.9821405 27.92600952 30.73112488 27.1968689 C29.67509449 24.92401337 28.75727904 23.69339265 26.78190613 22.15390015 C22.15382515 20.68172963 18.70717447 20.69967751 14.34440613 22.84140015 C10.94061453 25.91311452 9.99503665 27.51989945 9.40690613 32.02890015 C9.88649068 36.0254381 11.24930046 38.05849322 13.78190613 41.15390015 C16.99894216 43.51305991 19.86791596 43.61436958 23.78190613 43.15390015 C26.27972423 41.99796823 28.45295717 40.64442748 30.78190613 39.15390015 C31.77190613 39.81390015 32.76190613 40.47390015 33.78190613 41.15390015 C33.12190613 41.15390015 32.46190613 41.15390015 31.78190613 41.15390015 C31.78190613 41.81390015 31.78190613 42.47390015 31.78190613 43.15390015 C32.44190613 43.81390015 33.10190613 44.47390015 33.78190613 45.15390015 C33.45190613 46.14390015 33.12190613 47.13390015 32.78190613 48.15390015 C34.27270691 47.90059937 34.27270691 47.90059937 35.79362488 47.6421814 C39.96093114 47.11793996 44.04162124 47.13183053 48.23893738 47.1968689 C49.24922501 47.2122319 49.24922501 47.2122319 50.27992249 47.22790527 C53.10384073 47.27331389 55.92717591 47.32304017 58.75041199 47.40072632 C60.83003581 47.45508471 62.90878275 47.48424074 64.98893738 47.5093689 C66.83709045 47.55033691 66.83709045 47.55033691 68.72257996 47.59213257 C71.8798322 47.47233957 71.8798322 47.47233957 73.58537292 45.16049194 C73.98022888 44.49831665 74.37508484 43.83614136 74.78190613 43.15390015 C76.71940613 42.69296265 76.71940613 42.69296265 78.78190613 42.77890015 C79.46253113 42.79179077 80.14315613 42.8046814 80.84440613 42.81796265 C82.78190613 43.15390015 82.78190613 43.15390015 85.78190613 45.15390015 C85.45190613 46.14390015 85.12190613 47.13390015 84.78190613 48.15390015 C85.92554626 47.9923645 87.0691864 47.83082886 88.2474823 47.66439819 C92.6221625 47.11986732 96.92824638 46.99258404 101.33268738 46.9859314 C102.5036219 46.9809388 102.5036219 46.9809388 103.69821167 46.97584534 C105.33263058 46.97082108 106.96705958 46.9684356 108.60148621 46.96859741 C111.10515349 46.96639067 113.6083935 46.94813316 116.11198425 46.92929077 C117.7063838 46.92635995 119.30078542 46.92437307 120.89518738 46.9234314 C121.64206314 46.91624588 122.3889389 46.90906036 123.15844727 46.9016571 C126.91619187 46.91829912 128.57403794 47.01532135 131.78190613 49.15390015 C131.78190613 50.47390015 131.78190613 51.79390015 131.78190613 53.15390015 C131.12190613 53.15390015 130.46190613 53.15390015 129.78190613 53.15390015 C130.77190613 55.62890015 130.77190613 55.62890015 131.78190613 58.15390015 C128.24204418 58.15390015 127.28675209 57.57237211 124.78190613 55.15390015 C124.78190613 53.83390015 124.78190613 52.51390015 124.78190613 51.15390015 C124.45190613 51.15390015 124.12190613 51.15390015 123.78190613 51.15390015 C122.79190613 50.82390015 121.80190613 50.49390015 120.78190613 50.15390015 C120.45190613 50.48390015 120.12190613 50.81390015 119.78190613 51.15390015 C118.79190613 50.82390015 117.80190613 50.49390015 116.78190613 50.15390015 C116.45190613 50.48390015 116.12190613 50.81390015 115.78190613 51.15390015 C114.29690613 50.65890015 114.29690613 50.65890015 112.78190613 50.15390015 C112.45190613 50.48390015 112.12190613 50.81390015 111.78190613 51.15390015 C110.29690613 50.65890015 110.29690613 50.65890015 108.78190613 50.15390015 C108.45190613 50.48390015 108.12190613 50.81390015 107.78190613 51.15390015 C106.29690613 50.65890015 106.29690613 50.65890015 104.78190613 50.15390015 C104.45190613 50.48390015 104.12190613 50.81390015 103.78190613 51.15390015 C100.78190613 50.15390015 100.78190613 50.15390015 99.78190613 49.15390015 C99.78190613 50.47390015 99.78190613 51.79390015 99.78190613 53.15390015 C99.12190613 53.15390015 98.46190613 53.15390015 97.78190613 53.15390015 C97.28690613 54.14390015 97.28690613 54.14390015 96.78190613 55.15390015 C95.29690613 54.65890015 95.29690613 54.65890015 93.78190613 54.15390015 C85.90658785 53.54348793 78.22736641 53.0037745 71.78190613 58.15390015 C69.9646066 60.06930582 68.40001534 62.05987646 66.78190613 64.15390015 C66.12190613 64.15390015 65.46190613 64.15390015 64.78190613 64.15390015 C64.78190613 60.85390015 64.78190613 57.55390015 64.78190613 54.15390015 C58.18190613 54.15390015 51.58190613 54.15390015 44.78190613 54.15390015 C44.78190613 76.59390015 44.78190613 99.03390015 44.78190613 122.15390015 C51.71190613 122.15390015 58.64190613 122.15390015 65.78190613 122.15390015 C65.73549988 119.28702515 65.68909363 116.42015015 65.64128113 113.46640015 C65.61002794 110.66970589 65.58577302 107.87303157 65.56217957 105.07626343 C65.54214472 103.14225463 65.51490884 101.20830579 65.48014832 99.27450562 C65.43127042 96.48415272 65.40885594 93.69460513 65.39128113 90.90390015 C65.36031342 89.62059814 65.36031342 89.62059814 65.32872009 88.31137085 C65.32658338 82.51035129 66.38340782 77.94842873 69.78190613 73.15390015 C74.06214569 70.11017424 77.59455388 69.58800717 82.78190613 70.15390015 C85.53190613 71.09140015 85.53190613 71.09140015 87.78190613 73.15390015 C90.66346589 79.25087285 91.19911108 85.13526053 91.07487488 91.7828064 C91.07063004 92.65791367 91.06638519 93.53302094 91.06201172 94.43464661 C91.04538594 97.19556086 91.00776578 99.9557112 90.96940613 102.71640015 C90.95433841 104.60245722 90.94065368 106.48852588 90.9283905 108.37460327 C90.8955355 112.96799098 90.84386748 117.56081661 90.78190613 122.15390015 C90.45190613 122.15390015 90.12190613 122.15390015 89.78190613 122.15390015 C88.46913031 116.1630581 88.63490298 110.18994011 88.65690613 104.09140015 C88.65303894 103.01567749 88.64917175 101.93995483 88.64518738 100.83163452 C88.64647644 99.79200562 88.6477655 98.75237671 88.64909363 97.6812439 C88.65022156 96.74014771 88.65134949 95.79905151 88.6525116 94.82943726 C88.78080648 92.17663801 89.19177411 89.73975669 89.78190613 87.15390015 C88.29690613 86.65890015 88.29690613 86.65890015 86.78190613 86.15390015 C86.45190613 85.82390015 86.12190613 85.49390015 85.78190613 85.15390015 C85.78190613 86.47390015 85.78190613 87.79390015 85.78190613 89.15390015 C85.12190613 89.15390015 84.46190613 89.15390015 83.78190613 89.15390015 C84.11190613 90.14390015 84.44190613 91.13390015 84.78190613 92.15390015 C85.77190613 92.15390015 86.76190613 92.15390015 87.78190613 92.15390015 C86.79190613 92.64890015 86.79190613 92.64890015 85.78190613 93.15390015 C85.78190613 94.47390015 85.78190613 95.79390015 85.78190613 97.15390015 C85.12190613 97.15390015 84.46190613 97.15390015 83.78190613 97.15390015 C84.11190613 98.14390015 84.44190613 99.13390015 84.78190613 100.15390015 C85.77190613 100.15390015 86.76190613 100.15390015 87.78190613 100.15390015 C86.79190613 100.64890015 86.79190613 100.64890015 85.78190613 101.15390015 C85.78190613 102.47390015 85.78190613 103.79390015 85.78190613 105.15390015 C85.12190613 105.15390015 84.46190613 105.15390015 83.78190613 105.15390015 C84.11190613 106.14390015 84.44190613 107.13390015 84.78190613 108.15390015 C85.77190613 108.15390015 86.76190613 108.15390015 87.78190613 108.15390015 C86.79190613 108.64890015 86.79190613 108.64890015 85.78190613 109.15390015 C85.78190613 110.47390015 85.78190613 111.79390015 85.78190613 113.15390015 C85.12190613 113.15390015 84.46190613 113.15390015 83.78190613 113.15390015 C84.11190613 114.14390015 84.44190613 115.13390015 84.78190613 116.15390015 C85.77190613 116.15390015 86.76190613 116.15390015 87.78190613 116.15390015 C86.79190613 116.64890015 86.79190613 116.64890015 85.78190613 117.15390015 C85.78190613 118.47390015 85.78190613 119.79390015 85.78190613 121.15390015 C85.12190613 121.15390015 84.46190613 121.15390015 83.78190613 121.15390015 C84.11190613 122.14390015 84.44190613 123.13390015 84.78190613 124.15390015 C85.77190613 124.15390015 86.76190613 124.15390015 87.78190613 124.15390015 C86.79190613 124.64890015 86.79190613 124.64890015 85.78190613 125.15390015 C86.11190613 125.48390015 86.44190613 125.81390015 86.78190613 126.15390015 C87.44190613 126.15390015 88.10190613 126.15390015 88.78190613 126.15390015 C88.78190613 126.81390015 88.78190613 127.47390015 88.78190613 128.15390015 C90.10190613 127.49390015 91.42190613 126.83390015 92.78190613 126.15390015 C92.78190613 126.81390015 92.78190613 127.47390015 92.78190613 128.15390015 C94.10190613 127.49390015 95.42190613 126.83390015 96.78190613 126.15390015 C96.78190613 126.81390015 96.78190613 127.47390015 96.78190613 128.15390015 C98.10190613 127.49390015 99.42190613 126.83390015 100.78190613 126.15390015 C100.78190613 126.81390015 100.78190613 127.47390015 100.78190613 128.15390015 C102.10190613 127.49390015 103.42190613 126.83390015 104.78190613 126.15390015 C104.78190613 126.81390015 104.78190613 127.47390015 104.78190613 128.15390015 C105.77190613 128.48390015 106.76190613 128.81390015 107.78190613 129.15390015 C107.45190613 129.81390015 107.12190613 130.47390015 106.78190613 131.15390015 C106.12190613 130.82390015 105.46190613 130.49390015 104.78190613 130.15390015 C104.45190613 130.48390015 104.12190613 130.81390015 103.78190613 131.15390015 C102.79190613 130.82390015 101.80190613 130.49390015 100.78190613 130.15390015 C100.45190613 130.48390015 100.12190613 130.81390015 99.78190613 131.15390015 C98.79190613 130.82390015 97.80190613 130.49390015 96.78190613 130.15390015 C96.45190613 130.48390015 96.12190613 130.81390015 95.78190613 131.15390015 C94.79190613 130.82390015 93.80190613 130.49390015 92.78190613 130.15390015 C92.45190613 130.48390015 92.12190613 130.81390015 91.78190613 131.15390015 C90.79190613 130.82390015 89.80190613 130.49390015 88.78190613 130.15390015 C88.45190613 130.48390015 88.12190613 130.81390015 87.78190613 131.15390015 C86.79190613 130.82390015 85.80190613 130.49390015 84.78190613 130.15390015 C84.45190613 130.48390015 84.12190613 130.81390015 83.78190613 131.15390015 C82.79190613 130.82390015 81.80190613 130.49390015 80.78190613 130.15390015 C80.45190613 130.48390015 80.12190613 130.81390015 79.78190613 131.15390015 C78.79190613 130.82390015 77.80190613 130.49390015 76.78190613 130.15390015 C76.45190613 130.48390015 76.12190613 130.81390015 75.78190613 131.15390015 C74.79190613 130.82390015 73.80190613 130.49390015 72.78190613 130.15390015 C72.45190613 130.48390015 72.12190613 130.81390015 71.78190613 131.15390015 C70.79190613 130.82390015 69.80190613 130.49390015 68.78190613 130.15390015 C68.45190613 130.48390015 68.12190613 130.81390015 67.78190613 131.15390015 C66.79190613 130.82390015 65.80190613 130.49390015 64.78190613 130.15390015 C64.45190613 130.48390015 64.12190613 130.81390015 63.78190613 131.15390015 C62.79190613 130.82390015 61.80190613 130.49390015 60.78190613 130.15390015 C60.45190613 130.48390015 60.12190613 130.81390015 59.78190613 131.15390015 C58.79190613 130.82390015 57.80190613 130.49390015 56.78190613 130.15390015 C56.45190613 130.48390015 56.12190613 130.81390015 55.78190613 131.15390015 C54.79190613 130.82390015 53.80190613 130.49390015 52.78190613 130.15390015 C52.45190613 130.48390015 52.12190613 130.81390015 51.78190613 131.15390015 C50.79190613 130.82390015 49.80190613 130.49390015 48.78190613 130.15390015 C48.45190613 130.48390015 48.12190613 130.81390015 47.78190613 131.15390015 C46.79190613 130.82390015 45.80190613 130.49390015 44.78190613 130.15390015 C44.45190613 130.48390015 44.12190613 130.81390015 43.78190613 131.15390015 C42.79190613 130.82390015 41.80190613 130.49390015 40.78190613 130.15390015 C40.45190613 130.48390015 40.12190613 130.81390015 39.78190613 131.15390015 C38.79190613 130.82390015 37.80190613 130.49390015 36.78190613 130.15390015 C36.45190613 130.48390015 36.12190613 130.81390015 35.78190613 131.15390015 C34.79190613 130.82390015 33.80190613 130.49390015 32.78190613 130.15390015 C32.45190613 130.48390015 32.12190613 130.81390015 31.78190613 131.15390015 C28.78190613 130.15390015 28.78190613 130.15390015 27.59440613 128.09140015 C27.32628113 127.45202515 27.05815613 126.81265015 26.78190613 126.15390015 C27.44190613 125.49390015 28.10190613 124.83390015 28.78190613 124.15390015 C27.50573425 124.11651733 26.22956238 124.07913452 24.91471863 124.0406189 C23.24541775 123.97497223 21.57614824 123.90852445 19.90690613 123.84140015 C18.64426941 123.80756226 18.64426941 123.80756226 17.35612488 123.77304077 C16.14762878 123.71986694 16.14762878 123.71986694 14.91471863 123.6656189 C14.1710907 123.63943481 13.42746277 123.61325073 12.66130066 123.58627319 C10.78190613 123.15390015 10.78190613 123.15390015 8.78190613 120.15390015 C8.56158447 117.38363647 8.56158447 117.38363647 8.60246277 113.9859314 C8.61229691 112.71451294 8.62213104 111.44309448 8.63226318 110.13314819 C8.64212313 109.4542453 8.65198307 108.77534241 8.6621418 108.0758667 C8.69230557 105.94925492 8.70911192 103.82291766 8.72219849 101.69613647 C8.76195602 95.65027215 8.82709875 89.60473974 8.89836121 83.55917358 C8.94104452 79.85993048 8.96915912 76.16079878 8.98866081 72.46136475 C8.99923603 71.05149823 9.01564271 69.64166304 9.03796577 68.23193359 C9.0691132 66.26207971 9.08039024 64.29194181 9.09074402 62.3218689 C9.10343826 61.20062622 9.11613251 60.07938354 9.12921143 58.92416382 C8.73682556 55.79431724 8.17519908 55.07975142 5.78190613 53.15390015 C4.59440613 50.96640015 4.59440613 50.96640015 3.78190613 49.15390015 C3.78190613 49.81390015 3.78190613 50.47390015 3.78190613 51.15390015 C2.79190613 50.82390015 1.80190613 50.49390015 0.78190613 50.15390015 C0.28690613 50.64890015 0.28690613 50.64890015 -0.21809387 51.15390015 C-1.20809387 50.82390015 -2.19809387 50.49390015 -3.21809387 50.15390015 C-3.71309387 50.64890015 -3.71309387 50.64890015 -4.21809387 51.15390015 C-5.20809387 50.82390015 -6.19809387 50.49390015 -7.21809387 50.15390015 C-7.71309387 50.64890015 -7.71309387 50.64890015 -8.21809387 51.15390015 C-8.54809387 50.49390015 -8.87809387 49.83390015 -9.21809387 49.15390015 C-9.87809387 49.15390015 -10.53809387 49.15390015 -11.21809387 49.15390015 C-11.31708948 43.12164075 -11.38962295 37.08985588 -11.43782043 31.05697632 C-11.45791586 29.00546022 -11.48519711 26.95400126 -11.51985168 24.90267944 C-11.56846056 21.95111989 -11.59108339 19.00031866 -11.60871887 16.0484314 C-11.62936401 15.13366531 -11.65000916 14.21889923 -11.67127991 13.27641296 C-11.67276903 9.03507299 -11.60312184 6.77335967 -9.31867981 3.09799194 C-6.10011629 0.11921215 -4.2936578 0.02479137 0 0 Z M10.78190613 54.15390015 C10.78190613 76.59390015 10.78190613 99.03390015 10.78190613 122.15390015 C17.38190613 122.15390015 23.98190613 122.15390015 30.78190613 122.15390015 C30.78190613 99.71390015 30.78190613 77.27390015 30.78190613 54.15390015 C24.18190613 54.15390015 17.58190613 54.15390015 10.78190613 54.15390015 Z " fill="#4163B0" transform="translate(11.218093872070313,-0.153900146484375)"/>
<path d="M0 0 C0.33 0 0.66 0 1 0 C1.33 19.14 1.66 38.28 2 58 C2.33 57.01 2.66 56.02 3 55 C5.5625 53.8125 5.5625 53.8125 8 53 C8.33 53.66 8.66 54.32 9 55 C8.34 55 7.68 55 7 55 C7 56.32 7 57.64 7 59 C6.34 59 5.68 59 5 59 C5.33 59.99 5.66 60.98 6 62 C7.65 60.35 9.3 58.7 11 57 C13 59 13 59 13 63 C12.34 63 11.68 63 11 63 C11.33 63.763125 11.66 64.52625 12 65.3125 C13 68 13 68 13 71 C12.34 71 11.68 71 11 71 C11.495 71.495 11.495 71.495 12 72 C12.66 72 13.32 72 14 72 C14 72.66 14 73.32 14 74 C15.98 73.01 15.98 73.01 18 72 C18 72.66 18 73.32 18 74 C19.98 73.01 19.98 73.01 22 72 C22 72.66 22 73.32 22 74 C23.98 73.01 23.98 73.01 26 72 C26 72.66 26 73.32 26 74 C27.98 73.01 27.98 73.01 30 72 C30 72.66 30 73.32 30 74 C31.32 72.68 32.64 71.36 34 70 C27.4 69.67 20.8 69.34 14 69 C14 68.67 14 68.34 14 68 C20.93 68 27.86 68 35 68 C34.95359375 65.133125 34.9071875 62.26625 34.859375 59.3125 C34.82812181 56.51580574 34.80386689 53.71913143 34.78027344 50.92236328 C34.76023859 48.98835448 34.73300271 47.05440565 34.69824219 45.12060547 C34.64936429 42.33025257 34.62694981 39.54070499 34.609375 36.75 C34.58872986 35.89446533 34.56808472 35.03893066 34.54681396 34.1574707 C34.54467726 28.35645114 35.60150169 23.79452859 39 19 C43.28023956 15.95627409 46.81264776 15.43410703 52 16 C54.75 16.9375 54.75 16.9375 57 19 C59.88155976 25.0969727 60.41720495 30.98136038 60.29296875 37.62890625 C60.28872391 38.50401352 60.28447906 39.37912079 60.28010559 40.28074646 C60.26347981 43.04166072 60.22585966 45.80181105 60.1875 48.5625 C60.17243228 50.44855707 60.15874756 52.33462573 60.14648438 54.22070312 C60.11362937 58.81409083 60.06196135 63.40691647 60 68 C59.67 68 59.34 68 59 68 C57.68722418 62.00915795 57.85299685 56.03603996 57.875 49.9375 C57.87113281 48.86177734 57.86726563 47.78605469 57.86328125 46.67773438 C57.86457031 45.63810547 57.86585937 44.59847656 57.8671875 43.52734375 C57.86831543 42.58624756 57.86944336 41.64515137 57.87060547 40.67553711 C57.99890035 38.02273786 58.40986798 35.58585655 59 33 C57.515 32.505 57.515 32.505 56 32 C55.67 31.67 55.34 31.34 55 31 C55 32.32 55 33.64 55 35 C54.34 35 53.68 35 53 35 C53.33 35.99 53.66 36.98 54 38 C54.99 38 55.98 38 57 38 C56.01 38.495 56.01 38.495 55 39 C55 40.32 55 41.64 55 43 C54.34 43 53.68 43 53 43 C53.33 43.99 53.66 44.98 54 46 C54.99 46 55.98 46 57 46 C56.01 46.495 56.01 46.495 55 47 C55 48.32 55 49.64 55 51 C54.34 51 53.68 51 53 51 C53.33 51.99 53.66 52.98 54 54 C54.99 54 55.98 54 57 54 C56.01 54.495 56.01 54.495 55 55 C55 56.32 55 57.64 55 59 C54.34 59 53.68 59 53 59 C53.33 59.99 53.66 60.98 54 62 C54.99 62 55.98 62 57 62 C56.01 62.495 56.01 62.495 55 63 C55 64.32 55 65.64 55 67 C54.34 67 53.68 67 53 67 C53.33 67.99 53.66 68.98 54 70 C54.99 70 55.98 70 57 70 C56.01 70.495 56.01 70.495 55 71 C55.33 71.33 55.66 71.66 56 72 C56.66 72 57.32 72 58 72 C58 72.66 58 73.32 58 74 C59.32 73.34 60.64 72.68 62 72 C62 72.66 62 73.32 62 74 C63.32 73.34 64.64 72.68 66 72 C66 72.66 66 73.32 66 74 C67.32 73.34 68.64 72.68 70 72 C70 72.66 70 73.32 70 74 C71.32 73.34 72.64 72.68 74 72 C74 72.66 74 73.32 74 74 C75.485 74.495 75.485 74.495 77 75 C76.67 75.66 76.34 76.32 76 77 C75.34 76.67 74.68 76.34 74 76 C73.67 76.33 73.34 76.66 73 77 C71.515 76.505 71.515 76.505 70 76 C69.67 76.33 69.34 76.66 69 77 C67.515 76.505 67.515 76.505 66 76 C65.67 76.33 65.34 76.66 65 77 C63.515 76.505 63.515 76.505 62 76 C61.67 76.33 61.34 76.66 61 77 C59.515 76.505 59.515 76.505 58 76 C57.67 76.33 57.34 76.66 57 77 C55.515 76.505 55.515 76.505 54 76 C53.67 76.33 53.34 76.66 53 77 C51.515 76.505 51.515 76.505 50 76 C49.67 76.33 49.34 76.66 49 77 C47.515 76.505 47.515 76.505 46 76 C45.67 76.33 45.34 76.66 45 77 C43.515 76.505 43.515 76.505 42 76 C41.67 76.33 41.34 76.66 41 77 C40.01 76.67 39.02 76.34 38 76 C37.67 76.33 37.34 76.66 37 77 C36.01 76.67 35.02 76.34 34 76 C33.67 76.33 33.34 76.66 33 77 C32.01 76.67 31.02 76.34 30 76 C29.67 76.33 29.34 76.66 29 77 C28.01 76.67 27.02 76.34 26 76 C25.67 76.33 25.34 76.66 25 77 C24.01 76.67 23.02 76.34 22 76 C21.67 76.33 21.34 76.66 21 77 C20.01 76.67 19.02 76.34 18 76 C17.67 76.33 17.34 76.66 17 77 C16.01 76.67 15.02 76.34 14 76 C13.67 76.33 13.34 76.66 13 77 C12.01 76.67 11.02 76.34 10 76 C9.67 76.33 9.34 76.66 9 77 C7.515 76.505 7.515 76.505 6 76 C5.67 76.33 5.34 76.66 5 77 C3.515 76.505 3.515 76.505 2 76 C1.67 76.33 1.34 76.66 1 77 C-2 76 -2 76 -3.1875 73.9375 C-3.455625 73.298125 -3.72375 72.65875 -4 72 C-3.01 71.01 -3.01 71.01 -2 70 C-7.94 69.67 -13.88 69.34 -20 69 C-20 68.67 -20 68.34 -20 68 C-13.4 68 -6.8 68 0 68 C0 45.56 0 23.12 0 0 Z " fill="#3C5BA8" transform="translate(42,54)"/>
<path d="M0 0 C2 1 2 1 2 1 Z M-1 1 C-0.34 1.66 0.32 2.32 1 3 C3.0095466 3 5.02138222 2.99498275 7.02734375 2.875 C9 3 9 3 12 5 C11.34 5 10.68 5 10 5 C10.95865509 7.33075929 10.95865509 7.33075929 14 9 C13.34 9 12.68 9 12 9 C12.33 9.99 12.66 10.98 13 12 C13.99 12 14.98 12 16 12 C16.33 11.34 16.66 10.68 17 10 C17.66 9.01 18.32 8.02 19 7 C21.31 7.33 23.62 7.66 26 8 C25.34 8.33 24.68 8.66 24 9 C24 9.66 24 10.32 24 11 C22 12.625 22 12.625 20 14 C21.485 14.99 21.485 14.99 23 16 C23.66 14.68 24.32 13.36 25 12 C25.99 12 26.98 12 28 12 C28.99 11.67 29.98 11.34 31 11 C30.67 12.98 30.34 14.96 30 17 C29.34 17 28.68 17 28 17 C28.495 18.1446875 28.495 18.1446875 29 19.3125 C30 22 30 22 30 25 C29.34 25 28.68 25 28 25 C28.495 26.1446875 28.495 26.1446875 29 27.3125 C30 30 30 30 30 33 C29.34 33 28.68 33 28 33 C28.33 33.763125 28.66 34.52625 29 35.3125 C30 38 30 38 30 41 C29.34 41 28.68 41 28 41 C28 41.66 28 42.32 28 43 C27.01 42.67 26.02 42.34 25 42 C24.67 42.33 24.34 42.66 24 43 C21 42 21 42 20 41 C20 41.99 20 42.98 20 44 C19.01 44.495 19.01 44.495 18 45 C18 46.32 18 47.64 18 49 C17.34 49 16.68 49 16 49 C16 50.32 16 51.64 16 53 C15.34 53 14.68 53 14 53 C14.33 53.99 14.66 54.98 15 56 C15.99 56 16.98 56 18 56 C17.01 56.495 17.01 56.495 16 57 C16 58.32 16 59.64 16 61 C15.34 61 14.68 61 14 61 C14.33 61.99 14.66 62.98 15 64 C15.45375 63.34 15.9075 62.68 16.375 62 C16.91125 61.34 17.4475 60.68 18 60 C18.66 60 19.32 60 20 60 C20 59.01 20 58.02 20 57 C20.5775 56.7525 21.155 56.505 21.75 56.25 C24.3002997 54.83316683 26.01785701 53.12372463 28 51 C30 53 30 53 30 57 C29.34 57 28.68 57 28 57 C28.33 57.763125 28.66 58.52625 29 59.3125 C30 62 30 62 30 65 C29.34 65 28.68 65 28 65 C28.495 66.1446875 28.495 66.1446875 29 67.3125 C30 70 30 70 30 73 C29.34 73 28.68 73 28 73 C28 73.66 28 74.32 28 75 C28.99 75.99 28.99 75.99 30 77 C30 78.32 30 79.64 30 81 C29.34 81 28.68 81 28 81 C28 81.66 28 82.32 28 83 C25.525 83.495 25.525 83.495 23 84 C23.20625 83.401875 23.4125 82.80375 23.625 82.1875 C24.30671915 79.71549154 24.30671915 79.71549154 22 77 C22 77.66 22 78.32 22 79 C21.01 78.67 20.02 78.34 19 78 C18.67 78.33 18.34 78.66 18 79 C16.515 78.505 16.515 78.505 15 78 C14.67 78.33 14.34 78.66 14 79 C11 78 11 78 9.6875 76.1875 C9 74 9 74 9.875 71.9375 C10.24625 71.298125 10.6175 70.65875 11 70 C11 69.01 11 68.02 11 67 C10.67 68.32 10.34 69.64 10 71 C3.07 71 -3.86 71 -11 71 C-11 70.67 -11 70.34 -11 70 C-4.4 70 2.2 70 9 70 C8.93086395 63.18608873 8.84277029 56.37277593 8.73754883 49.55932617 C8.70441454 47.24428986 8.67634728 44.929175 8.65356445 42.61401367 C8.6198069 39.27488922 8.56747969 35.93647719 8.51171875 32.59765625 C8.50532883 31.57229263 8.4989389 30.54692902 8.49235535 29.49049377 C8.3028172 20.1033169 6.65616765 12.82257184 0 6 C-0.99 5.34 -1.98 4.68 -3 4 C-3 3.34 -3 2.68 -3 2 C-2.34 1.67 -1.68 1.34 -1 1 Z " fill="#3D5CA8" transform="translate(113,52)"/>
<path d="M0 0 C8 0 8 0 10 1 C10 1.99 10 2.98 10 4 C11.32 4.66 12.64 5.32 14 6 C14 5.34 14 4.68 14 4 C15.32 4.66 16.64 5.32 18 6 C18 5.34 18 4.68 18 4 C19.32 4.66 20.64 5.32 22 6 C22 5.34 22 4.68 22 4 C23.32 4.66 24.64 5.32 26 6 C26 5.34 26 4.68 26 4 C26.66 4.33 27.32 4.66 28 5 C27.67 29.09 27.34 53.18 27 78 C33.93 78 40.86 78 48 78 C47.34 79.65 46.68 81.3 46 83 C45.01 83 44.02 83 43 83 C42.67 82.67 42.34 82.34 42 82 C41.01 82.33 40.02 82.66 39 83 C38.67 82.67 38.34 82.34 38 82 C37.01 82.33 36.02 82.66 35 83 C34.67 82.67 34.34 82.34 34 82 C33.01 82.33 32.02 82.66 31 83 C30.67 82.67 30.34 82.34 30 82 C28.515 82.495 28.515 82.495 27 83 C26.505 82.505 26.505 82.505 26 82 C25.01 82 24.02 82 23 82 C23.5259375 80.9171875 23.5259375 80.9171875 24.0625 79.8125 C25.13007723 76.6097683 24.72595017 75.22644521 24 72 C24.4375 69.1875 24.4375 69.1875 25 67 C21.66462511 68.11179163 20.36292656 69.47411298 18 72 C17 70 17 70 17 67 C18.485 66.505 18.485 66.505 20 66 C20 65.01 20 64.02 20 63 C18.02 63.495 18.02 63.495 16 64 C16 66.31 16 68.62 16 71 C15.01 71.495 15.01 71.495 14 72 C14 51.21 14 30.42 14 9 C8.72 9 3.44 9 -2 9 C-2 7.35 -2 5.7 -2 4 C-1.01 4 -0.02 4 1 4 C0.34 3.34 -0.32 2.68 -1 2 C-0.67 1.34 -0.34 0.68 0 0 Z M9 4 C10 6 10 6 10 6 Z " fill="#3B5DA8" transform="translate(29,45)"/>
<path d="M0 0 C1.32 0.66 2.64 1.32 4 2 C3.34 2 2.68 2 2 2 C2 2.66 2 3.32 2 4 C2.66 4.66 3.32 5.32 4 6 C3.67 6.99 3.34 7.98 3 9 C3.99386719 8.83113281 4.98773438 8.66226563 6.01171875 8.48828125 C10.17902501 7.96403981 14.25971512 7.97793038 18.45703125 8.04296875 C19.13055634 8.05321075 19.80408142 8.06345276 20.49801636 8.07400513 C23.32193461 8.11941374 26.14526978 8.16914002 28.96850586 8.24682617 C31.04812968 8.30118456 33.12687663 8.33034059 35.20703125 8.35546875 C36.4391333 8.38278076 37.67123535 8.41009277 38.94067383 8.43823242 C42.09792607 8.31843942 42.09792607 8.31843942 43.8034668 6.0065918 C44.19832275 5.3444165 44.59317871 4.68224121 45 4 C46.9375 3.5390625 46.9375 3.5390625 49 3.625 C49.680625 3.63789062 50.36125 3.65078125 51.0625 3.6640625 C53 4 53 4 56 6 C55.67 6.99 55.34 7.98 55 9 C56.14364014 8.83846436 57.28728027 8.67692871 58.46557617 8.51049805 C62.84025638 7.96596718 67.14634025 7.83868389 71.55078125 7.83203125 C72.72171577 7.82703865 72.72171577 7.82703865 73.91630554 7.82194519 C75.55072445 7.81692093 77.18515346 7.81453546 78.81958008 7.81469727 C81.32324736 7.81249053 83.82648738 7.79423301 86.33007812 7.77539062 C87.92447767 7.7724598 89.51887929 7.77047293 91.11328125 7.76953125 C91.86015701 7.76234573 92.60703278 7.75516022 93.37654114 7.74775696 C97.13428575 7.76439897 98.79213181 7.86142121 102 10 C102 11.32 102 12.64 102 14 C101.34 14 100.68 14 100 14 C100.99 16.475 100.99 16.475 102 19 C98.46013806 19 97.50484597 18.41847197 95 16 C95 14.68 95 13.36 95 12 C94.67 12 94.34 12 94 12 C93.01 11.67 92.02 11.34 91 11 C90.67 11.33 90.34 11.66 90 12 C89.01 11.67 88.02 11.34 87 11 C86.67 11.33 86.34 11.66 86 12 C85.01 11.67 84.02 11.34 83 11 C82.67 11.33 82.34 11.66 82 12 C81.01 11.67 80.02 11.34 79 11 C78.67 11.33 78.34 11.66 78 12 C77.01 11.67 76.02 11.34 75 11 C74.67 11.33 74.34 11.66 74 12 C71 11 71 11 70 10 C70 11.32 70 12.64 70 14 C69.34 14 68.68 14 68 14 C67.67 14.66 67.34 15.32 67 16 C66.01 15.67 65.02 15.34 64 15 C56.12468172 14.38958778 48.44546028 13.84987435 42 19 C40.18270047 20.91540567 38.61810921 22.90597632 37 25 C36.34 25 35.68 25 35 25 C35 21.7 35 18.4 35 15 C28.4 15 21.8 15 15 15 C14.505 12.525 14.505 12.525 14 10 C14 10.66 14 11.32 14 12 C13.01 11.67 12.02 11.34 11 11 C10.67 11.33 10.34 11.66 10 12 C9.01 11.67 8.02 11.34 7 11 C6.67 11.33 6.34 11.66 6 12 C5.01 11.67 4.02 11.34 3 11 C2.67 11.33 2.34 11.66 2 12 C-1.73639216 10.75453595 -2.18756513 9.36595047 -4 6 C-4.33 6.66 -4.66 7.32 -5 8 C-5.99 7.34 -6.98 6.68 -8 6 C-8.33 6.66 -8.66 7.32 -9 8 C-9.99 7.34 -10.98 6.68 -12 6 C-12 6.66 -12 7.32 -12 8 C-11.34 8.66 -10.68 9.32 -10 10 C-10.99 10.495 -10.99 10.495 -12 11 C-12.66 10.67 -13.32 10.34 -14 10 C-14 11.65 -14 13.3 -14 15 C-15.65 15 -17.3 15 -19 15 C-19 37.44 -19 59.88 -19 83 C-21 81 -21 81 -21.22032166 78.34999084 C-21.20683182 77.22652756 -21.19334198 76.10306427 -21.17944336 74.94555664 C-21.16960922 73.67406265 -21.15977509 72.40256866 -21.14964294 71.09254456 C-21.139783 70.41114473 -21.12992306 69.72974491 -21.11976433 69.02769661 C-21.08965735 66.89696439 -21.07281036 64.76650521 -21.05970764 62.63560486 C-21.01990641 56.57692932 -20.95485404 50.51858295 -20.88354492 44.46020508 C-20.84085848 40.75563087 -20.81274423 37.05116804 -20.79324532 33.34640312 C-20.78266804 31.93374565 -20.76625904 30.52111947 -20.74394035 29.10859871 C-20.71278989 27.13384575 -20.70151535 25.15880938 -20.69116211 23.18383789 C-20.67846786 22.05957901 -20.66577362 20.93532013 -20.6526947 19.7769928 C-21.04472945 16.6423511 -21.60263995 15.92759483 -24 14 C-25.1875 11.8125 -25.1875 11.8125 -26 10 C-26 10.66 -26 11.32 -26 12 C-26.99 11.67 -27.98 11.34 -29 11 C-29.33 11.33 -29.66 11.66 -30 12 C-30.99 11.67 -31.98 11.34 -33 11 C-33.33 11.33 -33.66 11.66 -34 12 C-34.99 11.67 -35.98 11.34 -37 11 C-37.33 11.33 -37.66 11.66 -38 12 C-38.33 11.34 -38.66 10.68 -39 10 C-39.66 9.67 -40.32 9.34 -41 9 C-33.66236293 7.82597807 -26.41834582 7.90622877 -19 8 C-18.690625 7.38125 -18.38125 6.7625 -18.0625 6.125 C-17.375 4.75 -16.6875 3.375 -16 2 C-15.46375 2.33 -14.9275 2.66 -14.375 3 C-11.29659181 4.29617187 -9.32283362 4.39874003 -6 4 C-2.67191761 2.11586085 -2.67191761 2.11586085 0 0 Z " fill="#4162AE" transform="translate(41,39)"/>
<path d="M0 0 C1.65 0 3.3 0 5 0 C5.66 0.66 6.32 1.32 7 2 C7 1.34 7 0.68 7 0 C8.32 0.66 9.64 1.32 11 2 C11 1.34 11 0.68 11 0 C12.32 0.66 13.64 1.32 15 2 C15 1.34 15 0.68 15 0 C16.32 0.66 17.64 1.32 19 2 C19 1.34 19 0.68 19 0 C20.32 0.66 21.64 1.32 23 2 C23.18636279 6.09998139 22.80382903 8.39234195 21 12 C20.31890119 16.99472461 21.74288314 19.85382305 24.3203125 23.97265625 C25 26 25 26 23 31 C15.41 31 7.82 31 0 31 C0 20.77 0 10.54 0 0 Z " fill="#3F5FAB" transform="translate(0,17)"/>
<path d="M0 0 C0.33 0 0.66 0 1 0 C1.33 3.96 1.66 7.92 2 12 C2.33 11.01 2.66 10.02 3 9 C5.5625 7.8125 5.5625 7.8125 8 7 C8.33 7.66 8.66 8.32 9 9 C8.34 9 7.68 9 7 9 C7 10.32 7 11.64 7 13 C6.34 13 5.68 13 5 13 C5.33 13.99 5.66 14.98 6 16 C6.99 16 7.98 16 9 16 C8.34 16.33 7.68 16.66 7 17 C7 18.32 7 19.64 7 21 C6.34 21 5.68 21 5 21 C5.33 21.99 5.66 22.98 6 24 C6.99 24 7.98 24 9 24 C8.34 24.33 7.68 24.66 7 25 C7 26.32 7 27.64 7 29 C6.34 29 5.68 29 5 29 C5.33 29.99 5.66 30.98 6 32 C6.99 32 7.98 32 9 32 C8.01 32.495 8.01 32.495 7 33 C7 34.32 7 35.64 7 37 C6.34 37 5.68 37 5 37 C5.33 37.99 5.66 38.98 6 40 C6.45375 39.34 6.9075 38.68 7.375 38 C7.91125 37.34 8.4475 36.68 9 36 C9.66 36 10.32 36 11 36 C11 35.01 11 34.02 11 33 C11.5775 32.7525 12.155 32.505 12.75 32.25 C15.3002997 30.83316683 17.01785701 29.12372463 19 27 C21 29 21 29 21 33 C20.34 33 19.68 33 19 33 C19.33 33.763125 19.66 34.52625 20 35.3125 C21 38 21 38 21 41 C20.34 41 19.68 41 19 41 C19.33 41.763125 19.66 42.52625 20 43.3125 C21 46 21 46 21 49 C20.34 49 19.68 49 19 49 C19 49.66 19 50.32 19 51 C19.66 51.66 20.32 52.32 21 53 C21 54.32 21 55.64 21 57 C20.34 57 19.68 57 19 57 C19 57.66 19 58.32 19 59 C16.525 59.495 16.525 59.495 14 60 C14.20625 59.401875 14.4125 58.80375 14.625 58.1875 C15.30671915 55.71549154 15.30671915 55.71549154 13 53 C13 53.66 13 54.32 13 55 C12.01 54.67 11.02 54.34 10 54 C9.67 54.33 9.34 54.66 9 55 C7.515 54.505 7.515 54.505 6 54 C5.67 54.33 5.34 54.66 5 55 C2 54 2 54 0.6875 52.1875 C0 50 0 50 0.875 47.9375 C1.24625 47.298125 1.6175 46.65875 2 46 C2 45.01 2 44.02 2 43 C1.67 44.32 1.34 45.64 1 47 C-5.93 47 -12.86 47 -20 47 C-20 46.67 -20 46.34 -20 46 C-13.4 46 -6.8 46 0 46 C0 30.82 0 15.64 0 0 Z " fill="#3E5EAB" transform="translate(122,76)"/>
<path d="M0 0 C0.33 0 0.66 0 1 0 C1.33 19.14 1.66 38.28 2 58 C2.33 57.01 2.66 56.02 3 55 C5.5625 53.8125 5.5625 53.8125 8 53 C8.33 53.66 8.66 54.32 9 55 C8.34 55 7.68 55 7 55 C7 56.32 7 57.64 7 59 C6.34 59 5.68 59 5 59 C5.33 59.99 5.66 60.98 6 62 C7.65 60.35 9.3 58.7 11 57 C13 59 13 59 13 63 C12.34 63 11.68 63 11 63 C11.33 63.763125 11.66 64.52625 12 65.3125 C13 68 13 68 13 71 C12.34 71 11.68 71 11 71 C11.495 71.495 11.495 71.495 12 72 C12.66 72 13.32 72 14 72 C14 72.66 14 73.32 14 74 C15.98 73.01 15.98 73.01 18 72 C18 72.66 18 73.32 18 74 C19.98 73.01 19.98 73.01 22 72 C22 72.66 22 73.32 22 74 C23.98 73.01 23.98 73.01 26 72 C26 72.66 26 73.32 26 74 C27.98 73.01 27.98 73.01 30 72 C30 72.66 30 73.32 30 74 C31.32 72.68 32.64 71.36 34 70 C27.4 69.67 20.8 69.34 14 69 C14 68.67 14 68.34 14 68 C20.93 68 27.86 68 35 68 C35 54.47 35 40.94 35 27 C37.17503067 31.35006134 37.24560401 33.49440042 37.23046875 38.28515625 C37.23001053 38.98265488 37.22955231 39.6801535 37.2290802 40.39878845 C37.22606718 41.86882231 37.21820937 43.33885324 37.20581055 44.80883789 C37.18753477 47.05822053 37.18530117 49.30719141 37.18554688 51.55664062 C37.14774737 62.55675788 37.14774737 62.55675788 36 66 C36.99 66.33 37.98 66.66 39 67 C38.34 67 37.68 67 37 67 C37.33 67.99 37.66 68.98 38 70 C38.99 70 39.98 70 41 70 C40.01 70.495 40.01 70.495 39 71 C38.67 71.66 38.34 72.32 38 73 C37.33333333 74.33333333 36.66666667 75.66666667 36 77 C35.01 76.505 35.01 76.505 34 76 C33.67 76.33 33.34 76.66 33 77 C32.01 76.67 31.02 76.34 30 76 C29.67 76.33 29.34 76.66 29 77 C28.01 76.67 27.02 76.34 26 76 C25.67 76.33 25.34 76.66 25 77 C24.01 76.67 23.02 76.34 22 76 C21.67 76.33 21.34 76.66 21 77 C20.01 76.67 19.02 76.34 18 76 C17.67 76.33 17.34 76.66 17 77 C16.01 76.67 15.02 76.34 14 76 C13.67 76.33 13.34 76.66 13 77 C12.01 76.67 11.02 76.34 10 76 C9.67 76.33 9.34 76.66 9 77 C7.515 76.505 7.515 76.505 6 76 C5.67 76.33 5.34 76.66 5 77 C3.515 76.505 3.515 76.505 2 76 C1.67 76.33 1.34 76.66 1 77 C-2 76 -2 76 -3.1875 73.9375 C-3.455625 73.298125 -3.72375 72.65875 -4 72 C-3.01 71.01 -3.01 71.01 -2 70 C-7.94 69.67 -13.88 69.34 -20 69 C-20 68.67 -20 68.34 -20 68 C-13.4 68 -6.8 68 0 68 C0 45.56 0 23.12 0 0 Z " fill="#5E7BBB" transform="translate(42,54)"/>
<path d="M0 0 C3.78090031 3.46582528 4.95415479 8.38297574 5.5093689 13.41165161 C5.59362421 15.84410017 5.58844721 18.25797604 5.54296875 20.69140625 C5.53872391 21.56651352 5.53447906 22.44162079 5.53010559 23.34324646 C5.51347981 26.10416072 5.47585966 28.86431105 5.4375 31.625 C5.42243228 33.51105707 5.40874756 35.39712573 5.39648438 37.28320312 C5.36362937 41.87659083 5.31196135 46.46941647 5.25 51.0625 C4.92 51.0625 4.59 51.0625 4.25 51.0625 C2.93722418 45.07165795 3.10299685 39.09853996 3.125 33 C3.11919922 31.38641602 3.11919922 31.38641602 3.11328125 29.74023438 C3.11457031 28.70060547 3.11585937 27.66097656 3.1171875 26.58984375 C3.11831543 25.64874756 3.11944336 24.70765137 3.12060547 23.73803711 C3.24890035 21.08523786 3.65986798 18.64835655 4.25 16.0625 C3.26 15.7325 2.27 15.4025 1.25 15.0625 C0.92 15.3925 0.59 15.7225 0.25 16.0625 C-0.74 15.7325 -1.73 15.4025 -2.75 15.0625 C-3.08 15.3925 -3.41 15.7225 -3.75 16.0625 C-4.74 15.7325 -5.73 15.4025 -6.75 15.0625 C-7.08 15.3925 -7.41 15.7225 -7.75 16.0625 C-10.75 15.0625 -10.75 15.0625 -11.75 14.0625 C-11.75 15.0525 -11.75 16.0425 -11.75 17.0625 C-12.41 17.3925 -13.07 17.7225 -13.75 18.0625 C-13.75 19.3825 -13.75 20.7025 -13.75 22.0625 C-14.41 22.0625 -15.07 22.0625 -15.75 22.0625 C-15.75 22.7225 -15.75 23.3825 -15.75 24.0625 C-16.74 24.0625 -17.73 24.0625 -18.75 24.0625 C-18.83126109 21.33272936 -18.89061663 18.6053983 -18.9375 15.875 C-18.96263672 15.10607422 -18.98777344 14.33714844 -19.01367188 13.54492188 C-19.07382147 8.87330323 -18.79800776 5.8492014 -15.75 2.0625 C-10.55168062 -1.36366505 -5.91690383 -2.01712631 0 0 Z " fill="#3D5DAA" transform="translate(96.75,70.9375)"/>
<path d="M0 0 C2 1 2 1 2 1 Z M-1 1 C-0.34 1.66 0.32 2.32 1 3 C3.0095466 3 5.02138222 2.99498275 7.02734375 2.875 C9 3 9 3 12 5 C11.34 5 10.68 5 10 5 C10.95865509 7.33075929 10.95865509 7.33075929 14 9 C13.34 9 12.68 9 12 9 C12.33 9.99 12.66 10.98 13 12 C13.99 12 14.98 12 16 12 C16.33 11.34 16.66 10.68 17 10 C17.66 9.01 18.32 8.02 19 7 C21.31 7.33 23.62 7.66 26 8 C25.01 8.495 25.01 8.495 24 9 C24 9.66 24 10.32 24 11 C22 12.625 22 12.625 20 14 C20.99 14.66 21.98 15.32 23 16 C23.66 14.68 24.32 13.36 25 12 C25.99 12 26.98 12 28 12 C28.99 11.67 29.98 11.34 31 11 C30.67 12.98 30.34 14.96 30 17 C29.34 17 28.68 17 28 17 C28.33 17.763125 28.66 18.52625 29 19.3125 C30 22 30 22 30 25 C29.34 25 28.68 25 28 25 C28 25.66 28 26.32 28 27 C27.01 26.67 26.02 26.34 25 26 C24.67 26.33 24.34 26.66 24 27 C23.01 26.67 22.02 26.34 21 26 C20.67 26.33 20.34 26.66 20 27 C19.01 26.67 18.02 26.34 17 26 C17.309375 25.401875 17.61875 24.80375 17.9375 24.1875 C19.10209704 21.91043228 19.10209704 21.91043228 20 19 C19.01 18.67 18.02 18.34 17 18 C16.67 18.33 16.34 18.66 16 19 C15.01 18.67 14.02 18.34 13 18 C12.67 18.33 12.34 18.66 12 19 C12 19.66 12 20.32 12 21 C11.34 21 10.68 21 10 21 C9.67 21.66 9.34 22.32 9 23 C8.76925781 22.27554688 8.53851563 21.55109375 8.30078125 20.8046875 C5.82843071 13.4755851 3.59906514 8.39937676 -3 4 C-3 3.34 -3 2.68 -3 2 C-2.34 1.67 -1.68 1.34 -1 1 Z " fill="#4161AD" transform="translate(113,52)"/>
<path d="M0 0 C1.32 0.66 2.64 1.32 4 2 C4 2.66 4 3.32 4 4 C3.34 4 2.68 4 2 4 C2.33 4.99 2.66 5.98 3 7 C3.99 7 4.98 7 6 7 C5.01 7.495 5.01 7.495 4 8 C4 9.32 4 10.64 4 12 C3.34 12 2.68 12 2 12 C2.33 12.99 2.66 13.98 3 15 C3.99 15 4.98 15 6 15 C5.01 15.495 5.01 15.495 4 16 C4 17.32 4 18.64 4 20 C3.34 20 2.68 20 2 20 C2.33 20.99 2.66 21.98 3 23 C3.99 23 4.98 23 6 23 C5.34 23.33 4.68 23.66 4 24 C4 25.32 4 26.64 4 28 C3.34 28 2.68 28 2 28 C2.33 28.99 2.66 29.98 3 31 C3.99 31 4.98 31 6 31 C5.34 31.33 4.68 31.66 4 32 C4 33.32 4 34.64 4 36 C3.34 36 2.68 36 2 36 C2.33 36.99 2.66 37.98 3 39 C3.99 39 4.98 39 6 39 C5.01 39.495 5.01 39.495 4 40 C4.495 40.495 4.495 40.495 5 41 C5.66 41 6.32 41 7 41 C7 41.66 7 42.32 7 43 C8.32 42.34 9.64 41.68 11 41 C11 41.66 11 42.32 11 43 C12.32 42.34 13.64 41.68 15 41 C15 41.66 15 42.32 15 43 C16.32 42.34 17.64 41.68 19 41 C19 41.66 19 42.32 19 43 C20.32 42.34 21.64 41.68 23 41 C23 41.66 23 42.32 23 43 C23.99 43.33 24.98 43.66 26 44 C25.505 44.99 25.505 44.99 25 46 C24.01 45.505 24.01 45.505 23 45 C22.67 45.33 22.34 45.66 22 46 C21.01 45.67 20.02 45.34 19 45 C18.67 45.33 18.34 45.66 18 46 C17.01 45.67 16.02 45.34 15 45 C14.67 45.33 14.34 45.66 14 46 C12.515 45.505 12.515 45.505 11 45 C10.67 45.33 10.34 45.66 10 46 C8.515 45.505 8.515 45.505 7 45 C6.67 45.33 6.34 45.66 6 46 C4.515 45.505 4.515 45.505 3 45 C2.67 45.33 2.34 45.66 2 46 C0.515 45.505 0.515 45.505 -1 45 C-1.495 45.495 -1.495 45.495 -2 46 C-2.99 45.67 -3.98 45.34 -5 45 C-5.495 45.495 -5.495 45.495 -6 46 C-6.99 45.67 -7.98 45.34 -9 45 C-9.495 45.495 -9.495 45.495 -10 46 C-13 45 -13 45 -14.1875 42.9375 C-14.455625 42.298125 -14.72375 41.65875 -15 41 C-9.375 39 -9.375 39 -6 39 C-4.515 38.505 -4.515 38.505 -3 38 C-2.34 38 -1.68 38 -1 38 C-0.67 36.68 -0.34 35.36 0 34 C-0.99 33.67 -1.98 33.34 -3 33 C-2.690625 32.401875 -2.38125 31.80375 -2.0625 31.1875 C-0.89790296 28.91043228 -0.89790296 28.91043228 0 26 C-0.99 25.67 -1.98 25.34 -3 25 C-2.690625 24.401875 -2.38125 23.80375 -2.0625 23.1875 C-0.89790296 20.91043228 -0.89790296 20.91043228 0 18 C-0.99 17.67 -1.98 17.34 -3 17 C-2.690625 16.401875 -2.38125 15.80375 -2.0625 15.1875 C-0.89790296 12.91043228 -0.89790296 12.91043228 0 10 C-0.99 9.67 -1.98 9.34 -3 9 C-2.690625 8.443125 -2.38125 7.88625 -2.0625 7.3125 C-0.94238179 4.87459567 -0.43962636 2.63775814 0 0 Z " fill="#3F61AF" transform="translate(93,85)"/>
<path d="M0 0 C0.33 0 0.66 0 1 0 C1.33 3.96 1.66 7.92 2 12 C2.33 11.01 2.66 10.02 3 9 C5.5625 7.8125 5.5625 7.8125 8 7 C8.33 7.66 8.66 8.32 9 9 C8.34 9 7.68 9 7 9 C7 10.32 7 11.64 7 13 C6.34 13 5.68 13 5 13 C5.33 13.99 5.66 14.98 6 16 C6.99 16 7.98 16 9 16 C8.34 16.33 7.68 16.66 7 17 C7 18.32 7 19.64 7 21 C6.34 21 5.68 21 5 21 C5.33 21.99 5.66 22.98 6 24 C6.99 24 7.98 24 9 24 C8.34 24.33 7.68 24.66 7 25 C7 26.32 7 27.64 7 29 C6.34 29 5.68 29 5 29 C5.33 29.99 5.66 30.98 6 32 C6.99 32 7.98 32 9 32 C8.01 32.495 8.01 32.495 7 33 C7 34.32 7 35.64 7 37 C6.34 37 5.68 37 5 37 C5.33 37.99 5.66 38.98 6 40 C6.99 40 7.98 40 9 40 C8.01 40.495 8.01 40.495 7 41 C7 42.32 7 43.64 7 45 C6.34 45 5.68 45 5 45 C5 46.32 5 47.64 5 49 C4.34 49 3.68 49 3 49 C2.67 49.66 2.34 50.32 2 51 C2 48.33333333 2 45.66666667 2 43 C1.67 44.32 1.34 45.64 1 47 C-5.93 47 -12.86 47 -20 47 C-20 46.67 -20 46.34 -20 46 C-13.4 46 -6.8 46 0 46 C0 30.82 0 15.64 0 0 Z " fill="#5A77B9" transform="translate(122,76)"/>
<path d="M0 0 C0.103125 0.639375 0.20625 1.27875 0.3125 1.9375 C0.6528125 2.9584375 0.6528125 2.9584375 1 4 C1.99 4.33 2.98 4.66 4 5 C3.01 5.495 3.01 5.495 2 6 C1.34 5.67 0.68 5.34 0 5 C0 6.65 0 8.3 0 10 C-1.65 10 -3.3 10 -5 10 C-5 32.44 -5 54.88 -5 78 C-7 76 -7 76 -7.22032166 73.34999084 C-7.20683182 72.22652756 -7.19334198 71.10306427 -7.17944336 69.94555664 C-7.16960922 68.67406265 -7.15977509 67.40256866 -7.14964294 66.09254456 C-7.139783 65.41114473 -7.12992306 64.72974491 -7.11976433 64.02769661 C-7.08965735 61.89696439 -7.07281036 59.76650521 -7.05970764 57.63560486 C-7.01990641 51.57692932 -6.95485404 45.51858295 -6.88354492 39.46020508 C-6.84085848 35.75563087 -6.81274423 32.05116804 -6.79324532 28.34640312 C-6.78266804 26.93374565 -6.76625904 25.52111947 -6.74394035 24.10859871 C-6.71278989 22.13384575 -6.70151535 20.15880938 -6.69116211 18.18383789 C-6.67846786 17.05957901 -6.66577362 15.93532013 -6.6526947 14.7769928 C-7.04472945 11.6423511 -7.60263995 10.92759483 -10 9 C-11.1875 6.8125 -11.1875 6.8125 -12 5 C-12 5.66 -12 6.32 -12 7 C-12.99 6.67 -13.98 6.34 -15 6 C-15.33 6.33 -15.66 6.66 -16 7 C-16.99 6.67 -17.98 6.34 -19 6 C-19.33 6.33 -19.66 6.66 -20 7 C-20.99 6.67 -21.98 6.34 -23 6 C-23.33 6.33 -23.66 6.66 -24 7 C-24.33 6.34 -24.66 5.68 -25 5 C-25.66 4.67 -26.32 4.34 -27 4 C-20.63948769 2.98231803 -14.51117542 2.98618445 -8.07421875 3.16015625 C-4.82678417 3.2533333 -4.82678417 3.2533333 -2 1 C-1.34 0.67 -0.68 0.34 0 0 Z " fill="#6079B9" transform="translate(27,44)"/>
<path d="M0 0 C1.1446875 -0.01417969 2.289375 -0.02835937 3.46875 -0.04296875 C6.5 0.1875 6.5 0.1875 9.5 2.1875 C11.5 5.1875 11.5 5.1875 11.5 8.1875 C10.51 7.8575 9.52 7.5275 8.5 7.1875 C8.17 7.5175 7.84 7.8475 7.5 8.1875 C8.16 8.8475 8.82 9.5075 9.5 10.1875 C9.5 10.8475 9.5 11.5075 9.5 12.1875 C8.51 11.8575 7.52 11.5275 6.5 11.1875 C6.17 11.5175 5.84 11.8475 5.5 12.1875 C4.51 11.8575 3.52 11.5275 2.5 11.1875 C2.17 11.5175 1.84 11.8475 1.5 12.1875 C0.51 11.8575 -0.48 11.5275 -1.5 11.1875 C-1.83 11.5175 -2.16 11.8475 -2.5 12.1875 C-3.49 11.8575 -4.48 11.5275 -5.5 11.1875 C-5.83 11.5175 -6.16 11.8475 -6.5 12.1875 C-6.83 11.5275 -7.16 10.8675 -7.5 10.1875 C-8.16 10.1875 -8.82 10.1875 -9.5 10.1875 C-9.5 7.2175 -9.5 4.2475 -9.5 1.1875 C-6.15109379 0.07119793 -3.52460739 0.01984576 0 0 Z " fill="#4162AF" transform="translate(9.5,110.8125)"/>
<path d="M0 0 C2.375 -0.125 2.375 -0.125 5 0 C5.66 0.66 6.32 1.32 7 2 C7 1.34 7 0.68 7 0 C8.32 0.66 9.64 1.32 11 2 C11 1.34 11 0.68 11 0 C12.32 0.66 13.64 1.32 15 2 C15 1.34 15 0.68 15 0 C16.32 0.66 17.64 1.32 19 2 C19 1.34 19 0.68 19 0 C20.32 0.66 21.64 1.32 23 2 C23 3.65 23 5.3 23 7 C15.41 7 7.82 7 0 7 C0 4.69 0 2.38 0 0 Z " fill="#3A57A4" transform="translate(0,17)"/>
<path d="M0 0 C3.24082496 3.24082496 3.05101061 6.84191265 3.11352539 11.23950195 C3.11336816 12.90577011 3.107784 14.57204387 3.09765625 16.23828125 C3.0962413 17.11904831 3.09482635 17.99981537 3.09336853 18.90727234 C3.08778937 21.70905003 3.07524071 24.51074662 3.0625 27.3125 C3.05748231 29.21679572 3.05291987 31.12109269 3.04882812 33.02539062 C3.03782677 37.68362481 3.02057649 42.34179867 3 47 C2.67 47 2.34 47 2 47 C0.68722418 41.00915795 0.85299685 35.03603996 0.875 28.9375 C0.87113281 27.86177734 0.86726563 26.78605469 0.86328125 25.67773438 C0.86457031 24.63810547 0.86585937 23.59847656 0.8671875 22.52734375 C0.86831543 21.58624756 0.86944336 20.64515137 0.87060547 19.67553711 C0.99890035 17.02273786 1.40986798 14.58585655 2 12 C1.01 11.67 0.02 11.34 -1 11 C-1.33 11.33 -1.66 11.66 -2 12 C-2.99 11.67 -3.98 11.34 -5 11 C-5.33 11.33 -5.66 11.66 -6 12 C-6.99 11.67 -7.98 11.34 -9 11 C-7.79618552 8.50638429 -6.54571278 6.31856917 -5 4 C-4.319375 3.835 -3.63875 3.67 -2.9375 3.5 C-2.298125 3.335 -1.65875 3.17 -1 3 C-0.67 2.01 -0.34 1.02 0 0 Z " fill="#627BBB" transform="translate(99,75)"/>
<path d="M0 0 C2.17503067 4.35006134 2.24560401 6.49440042 2.23046875 11.28515625 C2.22978142 12.33140419 2.22978142 12.33140419 2.2290802 13.39878845 C2.22606718 14.86882231 2.21820937 16.33885324 2.20581055 17.80883789 C2.18753477 20.05822053 2.18530117 22.30719141 2.18554688 24.55664062 C2.14774737 35.55675788 2.14774737 35.55675788 1 39 C2.485 39.495 2.485 39.495 4 40 C3.34 40 2.68 40 2 40 C2.33 40.99 2.66 41.98 3 43 C3.99 43 4.98 43 6 43 C5.01 43.495 5.01 43.495 4 44 C3.67 44.66 3.34 45.32 3 46 C2.33333333 47.33333333 1.66666667 48.66666667 1 50 C-1.51083114 48.74458443 -1.87125446 47.49936512 -3 45 C-2.34 44.34 -1.68 43.68 -1 43 C-7.6 42.67 -14.2 42.34 -21 42 C-21 41.67 -21 41.34 -21 41 C-14.07 41 -7.14 41 0 41 C0 27.47 0 13.94 0 0 Z " fill="#778DC4" transform="translate(77,81)"/>
<path d="M0 0 C2 1 2 1 2 1 Z M-1 1 C-0.34 1.66 0.32 2.32 1 3 C3.0095466 3 5.02138222 2.99498275 7.02734375 2.875 C9 3 9 3 12 5 C11.34 5 10.68 5 10 5 C10.95865509 7.33075929 10.95865509 7.33075929 14 9 C13.34 9 12.68 9 12 9 C12 10.32 12 11.64 12 13 C11.34 13 10.68 13 10 13 C10 13.66 10 14.32 10 15 C9.34 15 8.68 15 8 15 C7.67 15.66 7.34 16.32 7 17 C6.78085938 16.48050781 6.56171875 15.96101563 6.3359375 15.42578125 C3.95822137 10.19673886 1.51938315 7.49225062 -3 4 C-3 3.34 -3 2.68 -3 2 C-2.34 1.67 -1.68 1.34 -1 1 Z " fill="#4665AD" transform="translate(113,52)"/>
<path d="M0 0 C2.375 -0.125 2.375 -0.125 5 0 C5.66 0.66 6.32 1.32 7 2 C7 1.34 7 0.68 7 0 C8.32 0.66 9.64 1.32 11 2 C11 1.34 11 0.68 11 0 C12.32 0.66 13.64 1.32 15 2 C15 1.34 15 0.68 15 0 C16.32 0.66 17.64 1.32 19 2 C19 3.65 19 5.3 19 7 C18.4225 6.814375 17.845 6.62875 17.25 6.4375 C15.06810627 5.84418396 15.06810627 5.84418396 13.21875 6.46875 C10.50664936 7.11812621 8.03567768 7.09566283 5.25 7.0625 C4.26515625 7.05347656 3.2803125 7.04445313 2.265625 7.03515625 C1.51796875 7.02355469 0.7703125 7.01195312 0 7 C0 4.69 0 2.38 0 0 Z " fill="#3C5AA8" transform="translate(0,25)"/>
<path d="M0 0 C2.375 -0.125 2.375 -0.125 5 0 C5.66 0.66 6.32 1.32 7 2 C7 1.34 7 0.68 7 0 C8.32 0.66 9.64 1.32 11 2 C11 1.34 11 0.68 11 0 C12.32 0.66 13.64 1.32 15 2 C15 1.34 15 0.68 15 0 C16.32 0.66 17.64 1.32 19 2 C17.484375 4.48046875 17.484375 4.48046875 15 7 C12.18760674 7.37398847 10.02407845 7.48293015 7.25 7.3125 C6.55261719 7.28994141 5.85523438 7.26738281 5.13671875 7.24414062 C3.42355065 7.18547048 1.71149377 7.09579256 0 7 C0 4.69 0 2.38 0 0 Z " fill="#3957A5" transform="translate(0,49)"/>
<path d="M0 0 C0.88945313 0.00644531 1.77890625 0.01289062 2.6953125 0.01953125 C3.61570312 0.03628906 4.53609375 0.05304688 5.484375 0.0703125 C6.42023438 0.07933594 7.35609375 0.08835937 8.3203125 0.09765625 C10.62526157 0.12117614 12.9296866 0.15404397 15.234375 0.1953125 C14.574375 1.8453125 13.914375 3.4953125 13.234375 5.1953125 C12.244375 5.1953125 11.254375 5.1953125 10.234375 5.1953125 C9.904375 4.8653125 9.574375 4.5353125 9.234375 4.1953125 C8.244375 4.5253125 7.254375 4.8553125 6.234375 5.1953125 C5.904375 4.8653125 5.574375 4.5353125 5.234375 4.1953125 C4.244375 4.5253125 3.254375 4.8553125 2.234375 5.1953125 C1.904375 4.8653125 1.574375 4.5353125 1.234375 4.1953125 C0.244375 4.5253125 -0.745625 4.8553125 -1.765625 5.1953125 C-2.095625 4.8653125 -2.425625 4.5353125 -2.765625 4.1953125 C-3.755625 4.5253125 -4.745625 4.8553125 -5.765625 5.1953125 C-6.095625 4.8653125 -6.425625 4.5353125 -6.765625 4.1953125 C-7.755625 4.1953125 -8.745625 4.1953125 -9.765625 4.1953125 C-7.76297187 0.19000624 -4.13906833 -0.05306498 0 0 Z " fill="#3B56A4" transform="translate(61.765625,122.8046875)"/>
<path d="M0 0 C0.99 0.33 1.98 0.66 3 1 C3 1.66 3 2.32 3 3 C2.34 3 1.68 3 1 3 C1.33 3.33 1.66 3.66 2 4 C2.66 4 3.32 4 4 4 C4 4.66 4 5.32 4 6 C5.32 5.34 6.64 4.68 8 4 C8 4.66 8 5.32 8 6 C9.32 5.34 10.64 4.68 12 4 C12 4.66 12 5.32 12 6 C13.32 5.34 14.64 4.68 16 4 C16 4.66 16 5.32 16 6 C17.32 5.34 18.64 4.68 20 4 C20 4.66 20 5.32 20 6 C20.99 6.33 21.98 6.66 23 7 C22.67 7.66 22.34 8.32 22 9 C21.34 8.67 20.68 8.34 20 8 C19.67 8.33 19.34 8.66 19 9 C18.01 8.67 17.02 8.34 16 8 C15.67 8.33 15.34 8.66 15 9 C14.01 8.67 13.02 8.34 12 8 C11.67 8.33 11.34 8.66 11 9 C10.01 8.67 9.02 8.34 8 8 C7.67 8.33 7.34 8.66 7 9 C6.01 8.67 5.02 8.34 4 8 C3.67 8.33 3.34 8.66 3 9 C0 8 0 8 -1.3125 6.1875 C-2 4 -2 4 -1.125 1.75 C-0.75375 1.1725 -0.3825 0.595 0 0 Z " fill="#4066B3" transform="translate(52,122)"/>
<path d="M0 0 C1.32 0.66 2.64 1.32 4 2 C4 1.34 4 0.68 4 0 C5.32 0.66 6.64 1.32 8 2 C8 1.34 8 0.68 8 0 C9.32 0.66 10.64 1.32 12 2 C12 3.65 12 5.3 12 7 C11.01 7 10.02 7 9 7 C8.01 7.33 7.02 7.66 6 8 C3 8 3 8 0 7 C-0.99 7 -1.98 7 -3 7 C-3 5.68 -3 4.36 -3 3 C-2.01 2.67 -1.02 2.34 0 2 C0 1.34 0 0.68 0 0 Z " fill="#3857A2" transform="translate(81,117)"/>
<path d="M0 0 C1.32 0.66 2.64 1.32 4 2 C4 1.34 4 0.68 4 0 C5.32 0.66 6.64 1.32 8 2 C8 1.34 8 0.68 8 0 C9.32 0.66 10.64 1.32 12 2 C10.35 3.98 8.7 5.96 7 8 C6.01 7.67 5.02 7.34 4 7 C0.94729537 6.84188612 0.94729537 6.84188612 -2 8 C-3 6 -3 6 -3 3 C-2.01 2.67 -1.02 2.34 0 2 C0 1.34 0 0.68 0 0 Z " fill="#3957A3" transform="translate(129,117)"/>
<path d="M0 0 C2.77109307 -0.05392397 5.54113818 -0.09363455 8.3125 -0.125 C9.09818359 -0.14175781 9.88386719 -0.15851562 10.69335938 -0.17578125 C11.45068359 -0.18222656 12.20800781 -0.18867188 12.98828125 -0.1953125 C13.68477783 -0.20578613 14.38127441 -0.21625977 15.09887695 -0.22705078 C17 0 17 0 20 2 C19.67 2.99 19.34 3.98 19 5 C19.99 5.33 20.98 5.66 22 6 C20.02 6.99 18.04 7.98 16 9 C15.67 8.34 15.34 7.68 15 7 C15.33 6.01 15.66 5.02 16 4 C15.01 3.67 14.02 3.34 13 3 C12.67 3.33 12.34 3.66 12 4 C11.01 3.67 10.02 3.34 9 3 C8.67 3.33 8.34 3.66 8 4 C7.01 3.67 6.02 3.34 5 3 C4.67 3.33 4.34 3.66 4 4 C3.01 3.67 2.02 3.34 1 3 C0.67 2.01 0.34 1.02 0 0 Z " fill="#496DB5" transform="translate(7,15)"/>
<path d="M0 0 C2.375 -0.125 2.375 -0.125 5 0 C5.66 0.66 6.32 1.32 7 2 C7 1.34 7 0.68 7 0 C8.32 0.66 9.64 1.32 11 2 C11 3.65 11 5.3 11 7 C7.37 7 3.74 7 0 7 C0 4.69 0 2.38 0 0 Z " fill="#3A57A5" transform="translate(0,113)"/>
<path d="M0 0 C2.9375 1.375 2.9375 1.375 5 3 C5 3.66 5 4.32 5 5 C4.01 4.67 3.02 4.34 2 4 C1.67 4.33 1.34 4.66 1 5 C-0.32 4.34 -1.64 3.68 -3 3 C-3 3.99 -3 4.98 -3 6 C-4.4800841 5.88637738 -5.95910074 5.75877092 -7.4375 5.625 C-8.26121094 5.55539063 -9.08492188 5.48578125 -9.93359375 5.4140625 C-10.61550781 5.27742188 -11.29742187 5.14078125 -12 5 C-12.33 4.34 -12.66 3.68 -13 3 C-8.45940437 0.34209036 -5.25927594 -0.57373919 0 0 Z " fill="#5670B6" transform="translate(94,70)"/>
<path d="M0 0 C0.99 0.33 1.98 0.66 3 1 C3.99 1 4.98 1 6 1 C5.67 2.65 5.34 4.3 5 6 C4.01 5.67 3.02 5.34 2 5 C-0.14255793 5.38932856 -0.14255793 5.38932856 -2 6 C-2 7.32 -2 8.64 -2 10 C-2.66 10 -3.32 10 -4 10 C-4.33 11.32 -4.66 12.64 -5 14 C-5.99 11.03 -6.98 8.06 -8 5 C-5 4 -5 4 -3 4 C-1.36323743 2.0399719 -1.36323743 2.0399719 0 0 Z " fill="#3C5CA8" transform="translate(49,19)"/>
<path d="M0 0 C1.32 0.66 2.64 1.32 4 2 C4 1.34 4 0.68 4 0 C5.32 0.66 6.64 1.32 8 2 C8 3.65 8 5.3 8 7 C7.01 7 6.02 7 5 7 C4.01 7.33 3.02 7.66 2 8 C1.01 8 0.02 8 -1 8 C-1.66 7.34 -2.32 6.68 -3 6 C-3 5.01 -3 4.02 -3 3 C-2.01 2.67 -1.02 2.34 0 2 C0 1.34 0 0.68 0 0 Z " fill="#3856A2" transform="translate(125,69)"/>
<path d="M0 0 C1.32 0.66 2.64 1.32 4 2 C4 1.34 4 0.68 4 0 C5.66666667 0 7.33333333 0 9 0 C9.33 0.99 9.66 1.98 10 3 C9.34 4.32 8.68 5.64 8 7 C4.37 7 0.74 7 -3 7 C-2.67 6.01 -2.34 5.02 -2 4 C-1.34 4 -0.68 4 0 4 C0 2.68 0 1.36 0 0 Z " fill="#3857A2" transform="translate(15,41)"/>
<path d="M0 0 C0.66 0.33 1.32 0.66 2 1 C1.67 2.65 1.34 4.3 1 6 C3.97 6.33 6.94 6.66 10 7 C10 7.33 10 7.66 10 8 C9.20335938 8.04898438 8.40671875 8.09796875 7.5859375 8.1484375 C-0.38157314 8.70029395 -0.38157314 8.70029395 -8 11 C-8 9.68 -8 8.36 -8 7 C-5 6 -5 6 -3 6 C-2.67 4.68 -2.34 3.36 -2 2 C-1.34 2 -0.68 2 0 2 C0 1.34 0 0.68 0 0 Z " fill="#5874B5" transform="translate(93,45)"/>
<path d="M0 0 C1.32 0.66 2.64 1.32 4 2 C4 1.34 4 0.68 4 0 C4.66 0.33 5.32 0.66 6 1 C6 2.98 6 4.96 6 7 C5.01 7 4.02 7 3 7 C2.01 7.33 1.02 7.66 0 8 C0 8.99 0 9.98 0 11 C-1.32 10.67 -2.64 10.34 -4 10 C-4 9.34 -4 8.68 -4 8 C-3.34 8 -2.68 8 -2 8 C-2 6.68 -2 5.36 -2 4 C-1.34 4.33 -0.68 4.66 0 5 C0.33 4.67 0.66 4.34 1 4 C0.34 3.34 -0.32 2.68 -1 2 C-0.67 1.34 -0.34 0.68 0 0 Z " fill="#3755A1" transform="translate(85,45)"/>
<path d="M0 0 C1.32 0.66 2.64 1.32 4 2 C3.34 2 2.68 2 2 2 C2 3.32 2 4.64 2 6 C1.34 6 0.68 6 0 6 C0 6.66 0 7.32 0 8 C-0.66 8 -1.32 8 -2 8 C-2.33 8.66 -2.66 9.32 -3 10 C-4.32 7.03 -5.64 4.06 -7 1 C-5.68 1.33 -4.36 1.66 -3 2 C-2.01 1.34 -1.02 0.68 0 0 Z " fill="#4F6CB3" transform="translate(123,59)"/>
<path d="M0 0 C1.051875 0.495 1.051875 0.495 2.125 1 C7.25975985 2.78600343 11.1284628 2.29248809 16 0 C16.33 1.32 16.66 2.64 17 4 C16.01 4.495 16.01 4.495 15 5 C14.34 4.67 13.68 4.34 13 4 C12.67 4.66 12.34 5.32 12 6 C11.01 5.34 10.02 4.68 9 4 C8.67 4.66 8.34 5.32 8 6 C7.01 5.34 6.02 4.68 5 4 C4.67 4.66 4.34 5.32 4 6 C3.67 5.34 3.34 4.68 3 4 C2.34 4 1.68 4 1 4 C0.67 4.66 0.34 5.32 0 6 C0 4 0 2 0 0 Z " fill="#5A74BA" transform="translate(24,41)"/>
<path d="M0 0 C0.33 0.66 0.66 1.32 1 2 C1.66 2.33 2.32 2.66 3 3 C2.34 3 1.68 3 1 3 C1.33 3.5775 1.66 4.155 2 4.75 C3 7 3 7 3 11 C2.34 11 1.68 11 1 11 C1 11.66 1 12.32 1 13 C0.01 13 -0.98 13 -2 13 C-2.05447047 11.58376784 -2.09300508 10.16691809 -2.125 8.75 C-2.14820312 7.96109375 -2.17140625 7.1721875 -2.1953125 6.359375 C-1.9828378 3.79268059 -1.28654105 2.2083933 0 0 Z " fill="#4864B0" transform="translate(80,74)"/>
<path d="M0 0 C4.455 0.99 4.455 0.99 9 2 C8.21625 2.763125 7.4325 3.52625 6.625 4.3125 C3.92742283 6.90891805 3.92742283 6.90891805 2 10 C1.34 10 0.68 10 0 10 C0 6.7 0 3.4 0 0 Z " fill="#6983BC" transform="translate(76,54)"/>
<path d="M0 0 C2.31 0 4.62 0 7 0 C7.25 5.625 7.25 5.625 5 9 C4.01 9 3.02 9 2 9 C2 8.01 2 7.02 2 6 C1.34 5.34 0.68 4.68 0 4 C0 2.66666667 0 1.33333333 0 0 Z M4 2 C5 4 5 4 5 4 Z " fill="#3855A3" transform="translate(42,39)"/>
<path d="M0 0 C2 2 2 2 2 6 C1.34 6 0.68 6 0 6 C0 6.66 0 7.32 0 8 C-0.99 7.67 -1.98 7.34 -3 7 C-3.33 7.33 -3.66 7.66 -4 8 C-4.99 7.67 -5.98 7.34 -7 7 C-2.25 1.125 -2.25 1.125 0 0 Z " fill="#4161AF" transform="translate(141,103)"/>
<path d="M0 0 C2 2 2 2 2 6 C1.34 6 0.68 6 0 6 C0 6.66 0 7.32 0 8 C-0.99 7.67 -1.98 7.34 -3 7 C-3.33 7.33 -3.66 7.66 -4 8 C-4.99 7.67 -5.98 7.34 -7 7 C-2.25 1.125 -2.25 1.125 0 0 Z " fill="#4161AF" transform="translate(141,95)"/>
<path d="M0 0 C2 2 2 2 2 6 C1.34 6 0.68 6 0 6 C0 6.66 0 7.32 0 8 C-0.99 7.67 -1.98 7.34 -3 7 C-3.33 7.33 -3.66 7.66 -4 8 C-4.99 7.67 -5.98 7.34 -7 7 C-2.25 1.125 -2.25 1.125 0 0 Z " fill="#4161AF" transform="translate(141,87)"/>
<path d="M0 0 C2 2 2 2 2 6 C1.34 6 0.68 6 0 6 C0 6.66 0 7.32 0 8 C-0.99 7.67 -1.98 7.34 -3 7 C-3.33 7.33 -3.66 7.66 -4 8 C-4.99 7.67 -5.98 7.34 -7 7 C-2.25 1.125 -2.25 1.125 0 0 Z " fill="#4161AF" transform="translate(141,79)"/>
<path d="M0 0 C2 2 2 2 2 6 C1.34 6 0.68 6 0 6 C0 6.66 0 7.32 0 8 C-0.99 7.67 -1.98 7.34 -3 7 C-3.33 7.33 -3.66 7.66 -4 8 C-4.99 7.67 -5.98 7.34 -7 7 C-2.25 1.125 -2.25 1.125 0 0 Z " fill="#4161AF" transform="translate(141,71)"/>
<path d="M0 0 C1.32 0.66 2.64 1.32 4 2 C4 1.34 4 0.68 4 0 C4.66 0.33 5.32 0.66 6 1 C5.34 2.98 4.68 4.96 4 7 C2 7 0 7 -2 7 C-1.125 2.25 -1.125 2.25 0 0 Z " fill="#3755A0" transform="translate(43,17)"/>
<path d="M0 0 C2.00059608 2.54621319 3.79215046 4.98037615 5 8 C4.67 8.66 4.34 9.32 4 10 C1 9 1 9 -0.6875 5.9375 C-1.120625 4.968125 -1.55375 3.99875 -2 3 C-1.34 3 -0.68 3 0 3 C0 2.01 0 1.02 0 0 Z " fill="#5271B5" transform="translate(19,33)"/>
<path d="M0 0 C0 0.66 0 1.32 0 2 C0.99 2.33 1.98 2.66 3 3 C2.67 3.66 2.34 4.32 2 5 C-1.0625 5.625 -1.0625 5.625 -4 6 C-4 4.35 -4 2.7 -4 1 C-2 0 -2 0 0 0 Z " fill="#3C5BAB" transform="translate(4,6)"/>
<path d="M0 0 C1.32 0.66 2.64 1.32 4 2 C3.67 3.32 3.34 4.64 3 6 C1.68 6.33 0.36 6.66 -1 7 C-1.66 5.35 -2.32 3.7 -3 2 C-2.01 2 -1.02 2 0 2 C0 1.34 0 0.68 0 0 Z " fill="#3655A0" transform="translate(95,73)"/>
<path d="M0 0 C1.32 0.66 2.64 1.32 4 2 C4 1.34 4 0.68 4 0 C5.32 0.66 6.64 1.32 8 2 C8 1.34 8 0.68 8 0 C9.32 0.66 10.64 1.32 12 2 C11.67 2.66 11.34 3.32 11 4 C4.07 3.505 4.07 3.505 -3 3 C-2.01 2.67 -1.02 2.34 0 2 C0 1.34 0 0.68 0 0 Z " fill="#34519A" transform="translate(95,49)"/>
<path d="M0 0 C1.32 0.66 2.64 1.32 4 2 C4 3.65 4 5.3 4 7 C3.401875 6.835 2.80375 6.67 2.1875 6.5 C-0.11344336 5.8885876 -0.11344336 5.8885876 -3 6 C-3 5.01 -3 4.02 -3 3 C-2.01 2.67 -1.02 2.34 0 2 C0 1.34 0 0.68 0 0 Z " fill="#34519C" transform="translate(15,25)"/>
<path d="M0 0 C0.99 0.33 1.98 0.66 3 1 C3.99 1 4.98 1 6 1 C5.01 1.495 5.01 1.495 4 2 C4 3.32 4 4.64 4 6 C3.34 6 2.68 6 2 6 C1.67 7.32 1.34 8.64 1 10 C0.01 7.03 -0.98 4.06 -2 1 C-1.34 0.67 -0.68 0.34 0 0 Z " fill="#6078BC" transform="translate(43,23)"/>
<path d="M0 0 C0.33 0 0.66 0 1 0 C1 3.96 1 7.92 1 12 C0.34 11.34 -0.32 10.68 -1 10 C-1 9.34 -1 8.68 -1 8 C-1.66 7.34 -2.32 6.68 -3 6 C-3 5.01 -3 4.02 -3 3 C-2.01 2.67 -1.02 2.34 0 2 C0 1.34 0 0.68 0 0 Z " fill="#33599D" transform="translate(143,9)"/>
<path d="M0 0 C0.99 0.33 1.98 0.66 3 1 C2.34 1 1.68 1 1 1 C0.67 1.66 0.34 2.32 0 3 C0.33 3.66 0.66 4.32 1 5 C0.34 5 -0.32 5 -1 5 C-1.33 5.66 -1.66 6.32 -2 7 C-3.32 6.67 -4.64 6.34 -6 6 C-2.25 1.125 -2.25 1.125 0 0 Z " fill="#5572B8" transform="translate(6,0)"/>
<path d="M0 0 C0.99 0.33 1.98 0.66 3 1 C3 1.66 3 2.32 3 3 C2.34 3 1.68 3 1 3 C1 3.66 1 4.32 1 5 C1.66 5.66 2.32 6.32 3 7 C3 7.66 3 8.32 3 9 C0 8 0 8 -1.3125 6.1875 C-2 4 -2 4 -1.125 1.75 C-0.75375 1.1725 -0.3825 0.595 0 0 Z " fill="#4466B5" transform="translate(140,122)"/>
<path d="M0 0 C2.64 0.33 5.28 0.66 8 1 C7.01 1.495 7.01 1.495 6 2 C6 2.66 6 3.32 6 4 C3.69 4 1.38 4 -1 4 C-0.67 2.68 -0.34 1.36 0 0 Z " fill="#4D6CB5" transform="translate(43,35)"/>
<path d="M0 0 C1.32 0.66 2.64 1.32 4 2 C2.35 3.98 0.7 5.96 -1 8 C-1.66 7.34 -2.32 6.68 -3 6 C-3 5.01 -3 4.02 -3 3 C-2.01 2.67 -1.02 2.34 0 2 C0 1.34 0 0.68 0 0 Z " fill="#35539F" transform="translate(49,117)"/>
<path d="M0 0 C1.32 0.66 2.64 1.32 4 2 C2.35 3.98 0.7 5.96 -1 8 C-1.66 7.34 -2.32 6.68 -3 6 C-3 5.01 -3 4.02 -3 3 C-2.01 2.67 -1.02 2.34 0 2 C0 1.34 0 0.68 0 0 Z " fill="#35539F" transform="translate(129,109)"/>
<path d="M0 0 C1.32 0.66 2.64 1.32 4 2 C2.35 3.98 0.7 5.96 -1 8 C-1.66 7.34 -2.32 6.68 -3 6 C-3 5.01 -3 4.02 -3 3 C-2.01 2.67 -1.02 2.34 0 2 C0 1.34 0 0.68 0 0 Z " fill="#35539F" transform="translate(49,109)"/>
<path d="M0 0 C1.32 0.66 2.64 1.32 4 2 C2.35 3.98 0.7 5.96 -1 8 C-1.66 7.34 -2.32 6.68 -3 6 C-3 5.01 -3 4.02 -3 3 C-2.01 2.67 -1.02 2.34 0 2 C0 1.34 0 0.68 0 0 Z " fill="#35539F" transform="translate(129,101)"/>
<path d="M0 0 C1.32 0.66 2.64 1.32 4 2 C2.35 3.98 0.7 5.96 -1 8 C-1.66 7.34 -2.32 6.68 -3 6 C-3 5.01 -3 4.02 -3 3 C-2.01 2.67 -1.02 2.34 0 2 C0 1.34 0 0.68 0 0 Z " fill="#35539F" transform="translate(49,101)"/>
<path d="M0 0 C1.32 0.66 2.64 1.32 4 2 C2.35 3.98 0.7 5.96 -1 8 C-1.66 7.34 -2.32 6.68 -3 6 C-3 5.01 -3 4.02 -3 3 C-2.01 2.67 -1.02 2.34 0 2 C0 1.34 0 0.68 0 0 Z " fill="#35539F" transform="translate(129,93)"/>
<path d="M0 0 C1.32 0.66 2.64 1.32 4 2 C2.35 3.98 0.7 5.96 -1 8 C-1.66 7.34 -2.32 6.68 -3 6 C-3 5.01 -3 4.02 -3 3 C-2.01 2.67 -1.02 2.34 0 2 C0 1.34 0 0.68 0 0 Z " fill="#35539F" transform="translate(49,93)"/>
<path d="M0 0 C1.32 0.66 2.64 1.32 4 2 C2.35 3.98 0.7 5.96 -1 8 C-1.66 7.34 -2.32 6.68 -3 6 C-3 5.01 -3 4.02 -3 3 C-2.01 2.67 -1.02 2.34 0 2 C0 1.34 0 0.68 0 0 Z " fill="#35539F" transform="translate(49,85)"/>
<path d="M0 0 C1.32 0.66 2.64 1.32 4 2 C2.35 3.98 0.7 5.96 -1 8 C-1.66 7.34 -2.32 6.68 -3 6 C-3 5.01 -3 4.02 -3 3 C-2.01 2.67 -1.02 2.34 0 2 C0 1.34 0 0.68 0 0 Z " fill="#35539F" transform="translate(129,77)"/>
<path d="M0 0 C1.32 0.66 2.64 1.32 4 2 C2.35 3.98 0.7 5.96 -1 8 C-1.66 7.34 -2.32 6.68 -3 6 C-3 5.01 -3 4.02 -3 3 C-2.01 2.67 -1.02 2.34 0 2 C0 1.34 0 0.68 0 0 Z " fill="#35539F" transform="translate(49,77)"/>
<path d="M0 0 C1.32 0.66 2.64 1.32 4 2 C2.35 3.98 0.7 5.96 -1 8 C-1.66 7.34 -2.32 6.68 -3 6 C-3 5.01 -3 4.02 -3 3 C-2.01 2.67 -1.02 2.34 0 2 C0 1.34 0 0.68 0 0 Z " fill="#35539F" transform="translate(49,69)"/>
<path d="M0 0 C1.32 0.66 2.64 1.32 4 2 C2.35 3.98 0.7 5.96 -1 8 C-1.66 7.34 -2.32 6.68 -3 6 C-3 5.01 -3 4.02 -3 3 C-2.01 2.67 -1.02 2.34 0 2 C0 1.34 0 0.68 0 0 Z " fill="#35539F" transform="translate(49,61)"/>
<path d="M0 0 C1.32 0.66 2.64 1.32 4 2 C3.1875 3.9375 3.1875 3.9375 2 6 C1.01 6.33 0.02 6.66 -1 7 C-1.66 5.35 -2.32 3.7 -3 2 C-2.01 2 -1.02 2 0 2 C0 1.34 0 0.68 0 0 Z " fill="#3552A0" transform="translate(47,25)"/>
<path d="M0 0 C0.99 0.33 1.98 0.66 3 1 C3 1.66 3 2.32 3 3 C2.34 3 1.68 3 1 3 C1 4.32 1 5.64 1 7 C0.34 7 -0.32 7 -1 7 C-1 7.66 -1 8.32 -1 9 C-1.99 8.67 -2.98 8.34 -4 8 C-3.34 7.05125 -2.68 6.1025 -2 5.125 C0.17968457 2.33761045 0.17968457 2.33761045 0 0 Z " fill="#4466B6" transform="translate(140,18)"/>
<path d="M0 0 C1.32 0.66 2.64 1.32 4 2 C2.35 3.98 0.7 5.96 -1 8 C-1.66 7.34 -2.32 6.68 -3 6 C-2.67 5.34 -2.34 4.68 -2 4 C-1.34 4 -0.68 4 0 4 C0 2.68 0 1.36 0 0 Z " fill="#3555A1" transform="translate(137,117)"/>
<path d="M0 0 C1.32 0.66 2.64 1.32 4 2 C2.35 3.98 0.7 5.96 -1 8 C-1.66 7.34 -2.32 6.68 -3 6 C-2.67 5.34 -2.34 4.68 -2 4 C-1.34 4 -0.68 4 0 4 C0 2.68 0 1.36 0 0 Z " fill="#3555A1" transform="translate(137,109)"/>
<path d="M0 0 C1.32 0.66 2.64 1.32 4 2 C2.35 3.98 0.7 5.96 -1 8 C-1.66 7.34 -2.32 6.68 -3 6 C-2.67 5.34 -2.34 4.68 -2 4 C-1.34 4 -0.68 4 0 4 C0 2.68 0 1.36 0 0 Z " fill="#3555A1" transform="translate(137,101)"/>
<path d="M0 0 C1.32 0.66 2.64 1.32 4 2 C2.35 3.98 0.7 5.96 -1 8 C-1.66 7.34 -2.32 6.68 -3 6 C-2.67 5.34 -2.34 4.68 -2 4 C-1.34 4 -0.68 4 0 4 C0 2.68 0 1.36 0 0 Z " fill="#3555A1" transform="translate(137,93)"/>
<path d="M0 0 C1.32 0.66 2.64 1.32 4 2 C2.35 3.98 0.7 5.96 -1 8 C-1.66 7.34 -2.32 6.68 -3 6 C-2.67 5.34 -2.34 4.68 -2 4 C-1.34 4 -0.68 4 0 4 C0 2.68 0 1.36 0 0 Z " fill="#3555A1" transform="translate(137,85)"/>
<path d="M0 0 C1.32 0.66 2.64 1.32 4 2 C2.35 3.98 0.7 5.96 -1 8 C-1.66 7.34 -2.32 6.68 -3 6 C-2.67 5.34 -2.34 4.68 -2 4 C-1.34 4 -0.68 4 0 4 C0 2.68 0 1.36 0 0 Z " fill="#3555A1" transform="translate(137,77)"/>
<path d="M0 0 C1.32 0.66 2.64 1.32 4 2 C2.35 3.98 0.7 5.96 -1 8 C-1.66 7.34 -2.32 6.68 -3 6 C-2.67 5.34 -2.34 4.68 -2 4 C-1.34 4 -0.68 4 0 4 C0 2.68 0 1.36 0 0 Z " fill="#3555A1" transform="translate(137,69)"/>
<path d="M0 0 C0.598125 0.350625 1.19625 0.70125 1.8125 1.0625 C0.8225 2.0525 -0.1675 3.0425 -1.1875 4.0625 C-2.5075 2.7425 -3.8275 1.4225 -5.1875 0.0625 C-2.1875 -0.9375 -2.1875 -0.9375 0 0 Z " fill="#4F71B5" transform="translate(7.1875,139.9375)"/>
<path d="M0 0 C1.32 0.66 2.64 1.32 4 2 C2.68 3.65 1.36 5.3 0 7 C-0.99 6.67 -1.98 6.34 -3 6 C-2.67 5.34 -2.34 4.68 -2 4 C-1.34 4 -0.68 4 0 4 C0 2.68 0 1.36 0 0 Z " fill="#3555A1" transform="translate(135,129)"/>
<path d="M0 0 C2.97 0.495 2.97 0.495 6 1 C5.1875 2.9375 5.1875 2.9375 4 5 C3.01 5.33 2.02 5.66 1 6 C0.4465236 3.92446352 0 2.15634036 0 0 Z " fill="#3555A1" transform="translate(81,74)"/>
<path d="M0 0 C0.66 0.66 1.32 1.32 2 2 C1.34 2 0.68 2 0 2 C0 3.32 0 4.64 0 6 C-0.66 6 -1.32 6 -2 6 C-2 6.66 -2 7.32 -2 8 C-2.99 7.67 -3.98 7.34 -5 7 C-1.125 1.125 -1.125 1.125 0 0 Z " fill="#4466B5" transform="translate(139,63)"/>
<path d="M0 0 C1.32 0.66 2.64 1.32 4 2 C3.34 2 2.68 2 2 2 C2 3.32 2 4.64 2 6 C1.34 6 0.68 6 0 6 C-0.33 6.66 -0.66 7.32 -1 8 C-1 5.16032769 -0.59732819 2.76264289 0 0 Z " fill="#4666B5" transform="translate(45,55)"/>
<path d="M0 0 C1.32 0.66 2.64 1.32 4 2 C3.1875 3.9375 3.1875 3.9375 2 6 C1.01 6.33 0.02 6.66 -1 7 C-1.33 6.01 -1.66 5.02 -2 4 C-1.34 4 -0.68 4 0 4 C0 2.68 0 1.36 0 0 Z " fill="#3555A1" transform="translate(135,25)"/>
<path d="M0 0 C1.32 0.66 2.64 1.32 4 2 C2.68 3.65 1.36 5.3 0 7 C-0.99 6.67 -1.98 6.34 -3 6 C-2.67 5.34 -2.34 4.68 -2 4 C-1.34 4 -0.68 4 0 4 C0 2.68 0 1.36 0 0 Z " fill="#3555A1" transform="translate(7,25)"/>
<path d="M0 0 C1.32 0.66 2.64 1.32 4 2 C2.68 3.65 1.36 5.3 0 7 C-0.99 6.67 -1.98 6.34 -3 6 C-2.67 5.34 -2.34 4.68 -2 4 C-1.34 4 -0.68 4 0 4 C0 2.68 0 1.36 0 0 Z " fill="#3555A1" transform="translate(135,9)"/>
</svg>
